<?xml version="1.0" standalone="no"?>
<!DOCTYPE svg PUBLIC "-//W3C//DTD SVG 20010904//EN"
 "http://www.w3.org/TR/2001/REC-SVG-20010904/DTD/svg10.dtd">
<svg version="1.0" xmlns="http://www.w3.org/2000/svg"
 width="1404.000000pt" height="1311.000000pt" viewBox="0 0 1404.000000 1311.000000"
 preserveAspectRatio="xMidYMid meet">
<metadata>
Created by potrace 1.10, written by Peter Selinger 2001-2011
</metadata>
<g transform="translate(0.000000,1311.000000) scale(0.100000,-0.100000)"
fill="#000000" stroke="none">
<path d="M3077 12886 c-3 -7 3 -26 14 -42 10 -16 19 -37 19 -47 0 -10 7 -25
15 -33 8 -9 15 -25 15 -37 0 -12 7 -31 15 -41 8 -11 15 -34 15 -52 0 -17 7
-37 15 -44 8 -7 15 -25 15 -39 0 -15 7 -36 15 -47 8 -10 15 -30 15 -44 0 -14
7 -34 15 -44 8 -11 15 -34 15 -52 0 -17 7 -37 15 -44 8 -7 15 -25 15 -39 0
-15 7 -36 15 -47 8 -10 15 -29 15 -41 0 -12 6 -34 14 -50 19 -38 36 -91 46
-135 4 -21 12 -43 17 -50 6 -7 13 -24 16 -38 3 -14 10 -38 16 -55 6 -16 22
-68 36 -115 44 -147 107 -344 116 -362 9 -19 27 -84 36 -133 3 -16 10 -36 16
-43 14 -18 46 -112 47 -138 0 -11 7 -29 15 -40 8 -10 15 -30 15 -44 0 -14 7
-36 15 -50 8 -14 14 -37 15 -51 0 -15 7 -32 15 -39 8 -7 15 -27 15 -44 0 -18
7 -41 15 -52 8 -10 15 -30 15 -44 0 -14 7 -34 15 -44 8 -11 15 -31 15 -44 0
-13 6 -36 14 -50 8 -15 17 -34 21 -42 8 -20 28 -55 42 -71 6 -8 12 -22 14 -32
5 -22 62 -46 134 -56 28 -4 60 -12 72 -19 12 -7 37 -12 56 -12 19 0 48 -7 63
-15 16 -8 45 -15 65 -15 20 0 42 -7 49 -15 7 -9 30 -15 54 -15 22 0 50 -7 60
-15 11 -8 40 -15 65 -15 25 0 55 -7 65 -15 11 -8 36 -15 55 -15 20 0 45 -7 55
-15 11 -8 34 -15 52 -15 18 0 34 -5 36 -11 2 -7 22 -13 43 -14 22 -1 43 -3 46
-4 7 -1 61 -83 57 -85 -2 -1 -22 -10 -46 -21 -36 -15 -46 -16 -70 -5 -20 9
-132 14 -439 18 l-412 5 -38 -31 c-42 -33 -38 -33 -113 10 -8 4 -25 12 -37 18
-13 5 -23 14 -23 20 0 5 -11 10 -24 10 -13 0 -29 7 -36 15 -7 8 -21 15 -32 15
-10 0 -21 7 -24 15 -4 8 -18 15 -34 15 -15 0 -33 7 -40 15 -7 8 -20 15 -30 15
-10 0 -20 7 -24 15 -3 8 -14 15 -25 15 -21 0 -76 27 -99 48 -7 6 -20 12 -29
12 -8 0 -35 14 -60 30 -24 17 -47 30 -51 30 -12 0 -143 56 -207 88 -89 44
-153 72 -165 72 -10 0 -19 4 -78 33 -19 9 -40 17 -47 17 -14 0 -66 20 -118 46
-16 8 -43 14 -62 14 -18 0 -38 7 -45 15 -7 8 -27 15 -45 15 -18 0 -38 7 -45
15 -8 10 -31 15 -64 15 -29 0 -59 7 -70 15 -12 9 -42 15 -75 15 -33 1 -64 7
-75 15 -14 11 -48 15 -120 15 -56 0 -128 7 -161 15 -90 21 -457 21 -479 -1 -9
-8 -16 -18 -16 -22 0 -3 35 -40 78 -82 98 -96 253 -260 313 -331 26 -29 57
-65 70 -80 13 -14 51 -59 84 -100 33 -40 82 -99 110 -130 27 -31 63 -71 79
-90 104 -122 132 -154 139 -157 4 -2 7 -9 7 -15 0 -7 20 -32 45 -57 25 -25 67
-72 92 -105 26 -33 71 -85 101 -117 30 -31 63 -71 74 -90 11 -18 41 -56 67
-83 25 -28 62 -69 81 -93 51 -61 72 -66 257 -50 87 7 209 12 272 10 89 -2 117
0 130 12 12 11 31 13 79 9 52 -5 62 -9 62 -24 0 -20 15 -26 25 -10 3 5 -2 16
-10 24 -8 9 -15 20 -15 26 0 19 -21 23 -141 25 -102 3 -122 6 -133 21 -12 17
-21 18 -112 7 -138 -16 -273 -22 -280 -11 -3 5 -18 9 -33 9 -39 0 -125 83
-116 111 4 12 2 19 -7 19 -7 0 -27 15 -42 33 -82 92 -136 158 -136 167 0 6
-20 31 -45 58 -25 26 -45 50 -45 55 0 4 -6 7 -14 7 -8 0 -24 19 -36 43 -29 56
-98 147 -111 147 -14 0 -89 76 -89 90 0 5 -9 15 -20 22 -11 7 -20 18 -20 25 0
7 -9 17 -20 23 -11 6 -20 18 -20 27 0 8 -12 27 -26 42 -14 14 -45 51 -70 81
-48 59 -51 62 -89 100 -14 13 -25 30 -25 36 0 6 -11 16 -25 22 -14 6 -41 36
-60 66 -19 29 -51 69 -73 87 -48 43 -116 145 -108 165 6 16 115 21 131 5 6 -5
37 -11 70 -14 33 -3 82 -11 109 -16 34 -8 53 -8 60 -1 13 13 53 13 61 0 3 -5
18 -10 33 -10 15 -1 45 -7 67 -16 22 -8 87 -23 145 -35 58 -11 139 -31 180
-44 41 -14 104 -34 140 -46 36 -11 80 -29 98 -40 19 -11 43 -17 55 -14 14 4
34 -3 56 -20 19 -14 40 -25 47 -25 7 0 72 -29 146 -65 73 -36 143 -65 156 -65
15 0 26 -7 29 -20 4 -14 14 -20 34 -20 16 0 38 -9 49 -20 11 -11 27 -20 36
-20 15 0 288 -133 311 -151 6 -6 23 -7 37 -3 20 5 26 2 26 -10 0 -20 9 -20 34
-1 26 19 46 19 46 0 0 -9 16 -32 35 -52 19 -20 35 -42 35 -49 0 -7 7 -17 15
-21 14 -8 105 -192 105 -213 0 -6 4 -18 10 -28 10 -20 22 -49 76 -187 52 -137
56 -142 112 -149 26 -3 89 -10 141 -16 52 -5 99 -14 105 -19 6 -5 27 -12 46
-16 19 -4 41 -11 50 -16 43 -22 238 -79 272 -79 15 0 30 -4 33 -10 3 -5 14
-10 22 -10 14 0 13 4 -5 20 -12 11 -34 26 -49 32 l-28 12 33 4 c21 2 40 -3 51
-12 10 -9 31 -16 47 -16 16 -1 40 -7 54 -15 14 -8 41 -14 61 -15 20 0 42 -7
49 -15 7 -8 29 -16 49 -17 20 -1 -36 -5 -124 -9 -190 -8 -335 -23 -413 -43
-31 -8 -88 -20 -127 -27 -188 -34 -190 -34 -193 -58 -2 -12 -14 -27 -28 -33
-17 -8 -24 -19 -24 -39 0 -23 -11 -35 -65 -71 -36 -23 -65 -48 -65 -55 0 -7
35 -60 78 -118 42 -58 111 -152 152 -210 41 -58 80 -111 85 -118 6 -7 15 -20
20 -29 18 -29 82 -122 131 -190 27 -36 56 -76 64 -88 26 -37 112 -155 116
-159 2 -3 10 4 18 14 12 17 14 16 24 -13 6 -18 15 -32 20 -32 12 0 42 -66 42
-93 0 -12 7 -33 16 -45 9 -13 13 -31 9 -42 -5 -16 -15 -20 -51 -20 -25 0 -75
-6 -112 -14 -37 -8 -98 -17 -137 -21 -38 -3 -115 -15 -170 -26 -55 -10 -125
-24 -155 -29 -30 -5 -102 -19 -160 -31 -164 -34 -155 -33 -172 -7 -8 12 -44
57 -79 99 -35 42 -76 91 -91 110 -44 56 -152 180 -238 273 -82 87 -245 206
-283 206 -20 0 -77 32 -77 44 0 4 75 7 168 5 146 -2 256 5 407 26 154 22 180
27 189 34 6 5 26 12 44 16 23 5 32 12 30 23 -1 10 1 23 6 30 11 18 9 19 -50
27 -40 5 -55 3 -67 -9 -10 -11 -34 -16 -67 -16 -36 0 -59 -6 -76 -19 -21 -17
-36 -19 -92 -14 -74 6 -184 -17 -214 -44 -14 -12 -28 -14 -65 -8 -27 4 -68 8
-93 9 -67 1 -297 -28 -450 -57 -47 -9 -107 -20 -135 -25 -27 -6 -83 -19 -122
-31 -40 -11 -83 -21 -95 -21 -25 0 -148 -39 -162 -52 -6 -4 -26 -8 -46 -8 -20
0 -45 -7 -56 -15 -10 -8 -31 -15 -45 -15 -15 0 -32 -7 -39 -15 -7 -8 -27 -15
-45 -15 -18 0 -38 -7 -45 -15 -7 -8 -23 -15 -35 -15 -12 0 -28 -7 -35 -15 -7
-8 -23 -15 -35 -15 -12 0 -28 -7 -35 -15 -7 -8 -23 -15 -35 -15 -12 0 -28 -7
-35 -15 -7 -8 -23 -15 -35 -15 -13 0 -25 -7 -29 -15 -3 -8 -16 -15 -30 -15
-13 0 -26 -7 -30 -15 -3 -8 -14 -15 -25 -15 -11 0 -23 -5 -26 -11 -4 -5 -17
-14 -28 -20 -33 -14 -61 -33 -70 -46 -4 -7 -17 -13 -28 -13 -11 0 -22 -7 -25
-15 -4 -8 -12 -15 -20 -15 -8 0 -14 -4 -14 -9 0 -5 -17 -19 -37 -32 -21 -12
-42 -27 -48 -33 -5 -6 -40 -35 -77 -64 -89 -70 -408 -400 -408 -422 0 -30 44
-39 192 -40 167 -1 211 -4 293 -19 33 -6 125 -11 205 -11 80 0 161 -5 180 -11
54 -17 381 -24 422 -10 32 12 143 33 163 31 6 0 31 -3 58 -6 36 -5 47 -3 47 7
0 8 6 25 13 39 52 98 83 149 109 176 44 47 35 68 -28 72 l-52 3 -29 -48 c-17
-26 -59 -79 -93 -116 -50 -54 -68 -67 -84 -62 -19 5 -373 18 -451 16 -16 0
-45 4 -65 9 -19 5 -93 11 -165 14 -334 14 -424 19 -432 25 -4 3 -15 19 -23 35
-13 26 -13 30 0 34 8 3 33 26 55 51 22 25 51 56 65 69 118 112 166 152 183
152 10 0 21 9 24 20 3 11 10 20 15 20 9 0 50 30 88 64 8 7 38 26 65 41 28 16
62 39 76 52 20 18 33 22 52 18 19 -5 30 -1 44 14 9 12 27 21 38 21 39 1 72 42
43 53 -7 3 4 3 24 0 20 -3 45 -2 55 2 10 5 23 9 28 9 11 1 37 21 63 49 13 14
26 16 61 11 38 -6 43 -5 38 10 -9 23 44 48 105 50 32 1 47 5 44 13 -6 14 16
23 56 23 16 0 36 7 44 15 9 8 27 15 41 15 25 0 88 16 183 46 25 8 58 14 73 14
15 0 44 7 64 15 19 8 54 15 77 15 23 0 51 7 63 15 15 10 32 12 64 7 43 -7 44
-8 47 -50 2 -24 9 -44 15 -46 56 -15 159 -54 200 -77 10 -5 37 -20 60 -31 42
-22 178 -108 187 -119 3 -3 22 -14 42 -23 20 -10 48 -32 61 -49 14 -18 42 -50
63 -73 22 -22 57 -62 78 -90 22 -27 65 -75 97 -106 31 -31 54 -60 51 -63 -16
-16 -78 -35 -116 -35 -22 -1 -52 -7 -66 -15 -14 -8 -41 -15 -60 -15 -19 0 -46
-7 -60 -15 -14 -8 -38 -15 -55 -15 -16 0 -41 -7 -55 -15 -14 -8 -41 -15 -60
-15 -19 0 -44 -7 -54 -15 -11 -8 -36 -15 -55 -15 -20 0 -45 -7 -55 -15 -11 -8
-33 -15 -50 -15 -16 0 -37 -7 -47 -16 -30 -27 -49 -11 -49 44 0 83 -37 95 -98
32 -21 -23 -49 -61 -61 -85 -24 -48 -62 -71 -181 -111 -30 -10 -66 -24 -80
-31 -14 -7 -35 -13 -47 -13 -12 0 -24 -4 -27 -9 -4 -5 -25 -12 -49 -16 -23 -4
-48 -12 -54 -17 -9 -7 -18 -7 -28 2 -12 10 -21 5 -52 -29 -20 -23 -60 -52 -89
-66 -29 -14 -56 -30 -59 -35 -3 -6 -20 -10 -37 -10 -16 0 -42 -6 -56 -14 -15
-7 -43 -21 -62 -29 -169 -76 -660 -317 -683 -335 -7 -5 -43 -26 -82 -46 -38
-21 -83 -46 -100 -57 -16 -10 -37 -22 -45 -26 -8 -3 -31 -19 -51 -35 -20 -15
-41 -28 -47 -28 -5 0 -12 -7 -16 -15 -3 -8 -13 -15 -23 -15 -10 0 -40 -20 -68
-45 -27 -25 -56 -45 -63 -45 -7 0 -15 -7 -18 -15 -4 -8 -12 -15 -20 -15 -8 0
-14 -4 -14 -10 0 -5 -14 -17 -31 -25 -16 -9 -38 -24 -47 -33 -10 -9 -42 -36
-71 -60 -140 -111 -486 -441 -494 -471 -2 -10 14 -56 36 -102 99 -207 130
-271 177 -371 27 -59 50 -110 50 -114 0 -4 13 -34 29 -68 55 -117 81 -176 87
-201 3 -14 10 -28 15 -31 5 -3 9 -13 9 -23 0 -10 7 -24 15 -31 8 -7 15 -21 15
-31 0 -11 14 -45 30 -76 17 -31 30 -63 30 -72 0 -10 7 -26 15 -37 8 -10 15
-26 15 -35 0 -9 7 -22 15 -29 8 -7 15 -23 15 -35 0 -12 7 -28 15 -35 8 -7 15
-20 15 -30 0 -10 7 -23 15 -30 8 -7 15 -25 15 -41 0 -15 4 -30 9 -33 13 -8 51
-89 51 -109 0 -9 4 -18 9 -21 11 -7 51 -88 51 -104 0 -7 13 -38 29 -70 16 -31
45 -91 64 -132 56 -120 146 -310 177 -375 16 -33 43 -96 60 -140 35 -85 53
-127 94 -216 14 -31 26 -61 26 -67 0 -7 13 -40 29 -74 16 -35 32 -75 35 -91 4
-15 11 -27 16 -27 6 0 10 -11 10 -24 0 -13 7 -29 15 -36 8 -7 15 -19 15 -27 0
-13 15 -48 41 -93 5 -8 12 -22 15 -30 3 -8 19 -44 36 -80 17 -36 37 -80 45
-97 13 -33 31 -75 57 -135 8 -18 22 -53 32 -78 10 -25 23 -52 29 -60 6 -8 17
-37 24 -65 11 -45 24 -64 42 -65 4 0 53 53 110 117 134 151 236 253 383 382
186 164 244 209 296 232 14 5 39 21 57 35 17 13 38 24 45 24 8 0 23 7 34 15
24 18 65 19 88 2 13 -9 19 -29 21 -66 1 -29 8 -58 14 -64 6 -6 11 -18 11 -26
0 -14 40 -104 76 -173 8 -14 14 -33 14 -41 0 -8 7 -20 15 -27 8 -7 15 -23 15
-35 0 -12 7 -28 15 -35 8 -7 15 -20 15 -30 0 -10 7 -23 15 -30 8 -7 15 -23 15
-35 0 -12 7 -28 15 -35 8 -7 15 -20 15 -30 0 -10 7 -23 15 -30 8 -7 15 -20 15
-29 0 -9 7 -25 15 -35 8 -11 15 -30 15 -43 0 -13 7 -26 15 -29 8 -4 15 -16 15
-29 0 -12 7 -28 15 -35 8 -7 15 -20 15 -30 0 -10 7 -23 15 -30 8 -7 15 -18 15
-25 0 -8 6 -26 14 -42 7 -15 20 -44 28 -63 8 -19 29 -64 46 -100 18 -36 32
-72 32 -81 0 -8 4 -19 9 -25 4 -5 25 -49 45 -99 21 -49 44 -104 52 -122 8 -17
14 -35 14 -41 0 -5 13 -40 29 -78 17 -38 53 -125 81 -194 28 -69 55 -133 60
-142 6 -10 10 -26 10 -36 0 -10 7 -27 15 -38 8 -10 15 -28 15 -39 0 -11 10
-33 23 -48 l22 -28 25 24 c14 13 48 50 75 82 28 32 68 74 89 94 22 20 49 45
60 56 35 33 204 142 251 162 25 10 45 21 45 25 0 4 16 10 35 14 19 3 35 10 35
14 0 4 18 10 40 14 22 3 40 11 40 16 0 6 15 10 33 10 18 0 42 7 53 15 10 8 33
15 50 15 17 0 37 7 44 15 7 8 25 15 40 15 15 0 33 7 40 15 7 8 25 15 40 15 15
0 33 7 40 15 7 8 29 15 49 15 21 0 46 7 57 15 10 8 37 15 60 15 22 0 49 7 60
15 10 8 40 15 65 15 29 0 51 6 59 15 8 9 30 15 59 15 26 0 56 7 67 15 12 9 43
14 82 15 34 0 79 7 99 15 21 9 67 15 115 15 47 0 93 6 115 15 23 10 68 15 129
15 57 0 108 6 131 14 23 9 93 17 173 20 74 2 151 9 170 15 48 15 952 15 1000
0 19 -6 94 -11 165 -13 99 -2 137 -6 160 -19 22 -12 54 -17 116 -17 56 0 96
-5 116 -15 20 -10 54 -14 99 -13 52 2 76 -2 94 -15 16 -11 44 -17 85 -17 37
-1 67 -6 79 -15 11 -8 38 -15 60 -15 23 0 50 -7 60 -15 11 -8 39 -15 62 -15
23 0 58 -7 77 -15 20 -8 49 -15 64 -15 15 0 37 -7 47 -15 11 -8 34 -15 52 -15
17 0 45 -7 60 -15 16 -8 36 -15 44 -15 8 0 24 -7 34 -15 11 -8 29 -15 40 -15
24 0 103 -28 131 -47 11 -7 31 -13 45 -13 14 0 30 -4 35 -9 6 -4 51 -25 101
-45 119 -48 203 -93 321 -174 71 -47 77 -53 152 -140 60 -69 88 -78 115 -37 9
13 16 40 16 58 0 19 7 40 15 47 8 7 15 22 15 34 0 11 14 50 31 86 17 36 37 79
44 95 45 101 58 130 100 225 104 233 109 243 215 465 34 72 66 137 71 145 5 8
13 25 18 37 6 11 15 24 20 28 6 3 11 17 11 31 0 13 4 24 9 24 5 0 14 12 20 27
6 16 15 35 20 43 5 8 12 22 15 30 3 8 10 23 16 32 5 10 15 26 20 35 6 10 13
25 16 33 10 25 66 144 75 160 5 8 12 22 15 30 3 8 12 27 20 42 8 14 14 33 14
41 0 8 7 20 15 27 8 7 15 20 15 30 0 10 7 23 15 30 8 7 15 25 15 41 0 16 5 29
10 29 6 0 10 15 10 34 0 50 33 86 80 86 21 0 43 -6 50 -15 7 -8 20 -15 30 -15
10 0 23 -7 30 -15 7 -8 18 -15 25 -15 7 0 18 -7 25 -15 7 -8 19 -15 27 -15 8
0 32 -13 53 -30 21 -16 42 -30 48 -30 6 0 46 -26 89 -58 43 -32 85 -61 93 -64
36 -14 436 -354 500 -424 19 -22 46 -56 60 -77 47 -71 86 -59 113 35 10 35 25
76 33 91 7 16 14 41 14 57 0 15 7 33 15 40 8 7 15 23 15 35 0 12 7 28 15 35 8
7 15 20 15 30 0 10 7 23 15 30 8 7 15 20 15 30 0 10 7 23 15 30 8 7 15 19 15
28 0 19 38 100 51 108 5 3 9 18 9 33 0 16 7 34 15 41 8 7 15 20 15 29 0 9 7
25 15 35 8 11 15 28 15 37 0 10 6 30 14 46 8 15 21 44 30 63 8 19 28 64 44
100 17 36 41 94 55 130 24 61 46 111 119 270 16 36 39 85 50 110 11 25 34 77
53 115 18 39 41 92 50 118 10 26 22 50 26 53 5 3 9 15 9 27 0 12 7 31 15 41 8
11 15 27 15 37 0 9 7 22 15 29 8 7 15 19 15 26 0 8 13 43 30 77 16 35 30 71
30 79 0 9 7 21 15 28 8 7 15 20 15 30 0 10 7 23 15 30 8 7 15 20 15 29 0 9 7
25 15 35 8 11 15 30 15 42 0 12 7 27 15 34 8 7 15 20 15 29 0 10 7 26 15 37 8
10 15 28 15 39 0 11 7 29 15 39 8 11 15 26 15 33 0 7 24 63 54 125 30 62 58
127 62 143 4 17 10 35 14 40 4 6 19 46 34 90 15 44 31 84 35 90 4 5 14 26 21
45 7 19 28 68 47 108 18 40 33 75 33 78 0 6 53 124 69 154 5 9 25 49 46 90 20
41 43 86 50 100 7 14 15 42 19 62 6 35 3 41 -47 95 -67 73 -235 234 -306 293
-30 25 -73 62 -97 83 -23 21 -56 48 -72 60 -17 12 -94 70 -171 130 -77 59
-143 107 -147 107 -3 0 -23 14 -44 30 -21 17 -41 30 -45 30 -4 0 -24 13 -45
30 -21 16 -42 30 -48 30 -5 0 -34 16 -63 36 -30 20 -164 90 -299 156 -377 185
-404 198 -427 198 -11 0 -26 7 -33 15 -7 8 -20 15 -29 15 -10 0 -26 7 -37 15
-10 8 -29 15 -40 15 -12 0 -27 7 -34 15 -7 8 -23 15 -35 15 -12 0 -28 7 -35
15 -7 8 -22 15 -34 15 -12 0 -31 7 -42 15 -10 8 -30 15 -45 15 -14 0 -30 5
-36 11 -6 6 -26 14 -44 19 -71 17 -155 52 -201 83 -67 45 -5 97 114 97 46 0
69 4 78 15 7 8 19 15 27 15 8 0 27 6 41 13 15 8 42 21 60 30 19 9 44 17 57 17
12 0 28 7 35 15 7 8 18 15 25 15 8 0 26 6 42 14 15 7 46 21 68 31 22 9 53 23
68 31 16 8 33 14 39 14 6 0 40 14 75 30 34 17 69 30 76 30 6 0 21 7 31 15 11
8 29 15 41 15 12 0 30 7 41 15 10 8 29 15 41 15 12 0 25 5 28 10 3 6 15 10 27
10 11 0 34 6 51 14 47 20 86 33 147 46 108 24 130 75 51 117 -24 12 -58 33
-75 46 -17 12 -51 33 -76 45 -25 13 -52 27 -60 31 -8 5 -31 16 -50 24 -73 33
-126 59 -165 82 -22 13 -53 24 -68 25 -16 0 -35 7 -43 15 -9 8 -27 15 -42 15
-15 0 -36 7 -46 15 -12 9 -42 15 -72 15 -29 0 -55 4 -59 9 -3 5 -31 12 -63 16
-31 3 -72 13 -90 21 -18 7 -56 14 -85 14 -29 0 -68 5 -87 11 -19 6 -125 16
-235 21 -269 14 -306 14 -407 4 -80 -8 -88 -7 -117 13 -27 19 -31 29 -31 67 0
40 2 44 25 44 14 0 25 6 25 13 0 7 20 43 45 80 25 37 45 71 45 76 0 5 7 14 15
21 9 7 23 29 32 49 9 20 25 44 35 54 10 10 15 23 12 29 -4 6 0 16 8 22 16 11
78 120 117 202 11 23 24 45 29 48 6 3 24 33 42 67 44 84 64 121 121 215 27 45
49 85 49 89 0 4 14 27 30 52 17 24 39 61 50 81 28 51 41 71 73 113 15 20 27
44 27 53 0 9 5 16 10 16 6 0 14 8 17 18 7 20 78 113 120 158 55 58 73 87 73
112 l0 25 -92 -7 c-50 -4 -101 -12 -112 -19 -12 -6 -75 -14 -141 -18 -128 -8
-204 -21 -272 -46 -22 -8 -50 -12 -61 -9 -20 7 -153 -23 -189 -42 -10 -5 -36
-13 -58 -16 -57 -10 -190 -53 -253 -82 -29 -13 -59 -24 -68 -24 -8 0 -41 -13
-74 -30 -33 -16 -64 -30 -70 -30 -6 0 -28 -11 -50 -25 -22 -14 -46 -25 -53
-25 -8 0 -33 -13 -55 -30 -23 -16 -44 -30 -46 -30 -3 0 -25 -13 -49 -30 -25
-16 -50 -30 -57 -30 -6 0 -37 -20 -69 -45 -31 -25 -60 -45 -64 -45 -4 0 -33
-20 -66 -45 -32 -25 -63 -45 -68 -45 -5 0 -22 -12 -39 -27 -16 -16 -76 -59
-132 -97 -56 -38 -102 -72 -102 -76 0 -4 -8 -10 -17 -13 -26 -9 -136 -91 -141
-105 -10 -30 152 9 170 41 5 9 15 17 23 17 16 0 120 64 130 80 3 5 15 10 27
10 11 0 22 8 25 19 3 11 19 25 36 31 68 25 77 30 77 39 0 6 20 22 45 37 25 14
45 29 45 34 0 4 8 10 18 14 9 3 51 28 92 56 41 27 86 55 100 61 14 6 39 21 57
35 18 14 51 31 73 39 22 8 45 19 52 25 51 42 64 50 88 50 15 0 33 7 40 15 8 9
21 13 32 10 10 -4 33 2 52 14 18 12 41 21 50 21 9 0 41 13 71 29 29 16 71 31
92 34 69 10 98 20 126 43 16 13 37 24 48 24 10 0 19 6 19 13 0 11 26 14 115
15 85 1 123 5 146 18 24 12 29 18 18 24 -24 15 -3 21 81 24 59 1 87 -2 96 -12
9 -9 19 -10 30 -4 33 19 51 3 57 -50 6 -47 4 -53 -30 -95 -20 -24 -46 -66 -59
-93 -12 -26 -32 -53 -43 -60 -12 -6 -21 -19 -21 -30 0 -22 -50 -117 -92 -175
-16 -22 -33 -57 -39 -78 -6 -24 -18 -41 -29 -44 -13 -3 -21 -18 -25 -46 -4
-23 -18 -50 -31 -62 -13 -12 -24 -28 -24 -34 0 -17 -74 -153 -120 -221 -20
-31 -43 -73 -51 -94 -7 -21 -22 -42 -31 -47 -10 -5 -18 -18 -18 -28 0 -10 -13
-36 -28 -57 -16 -21 -35 -52 -44 -69 -9 -16 -25 -48 -37 -70 -15 -28 -20 -50
-16 -72 5 -30 3 -33 -32 -43 -21 -7 -117 -16 -213 -20 -267 -13 -459 -32 -478
-46 -32 -24 5 -43 113 -59 135 -19 188 -30 204 -40 15 -9 119 -32 196 -44 28
-4 60 -12 72 -19 12 -7 33 -12 48 -12 14 0 28 -6 31 -14 3 -8 -15 -50 -40 -95
-25 -44 -46 -83 -46 -86 0 -3 -11 -22 -24 -43 -14 -20 -49 -84 -79 -142 -32
-63 -61 -106 -71 -108 -9 -2 -36 5 -59 16 -23 11 -69 25 -102 31 -33 7 -76 16
-95 21 -52 12 -148 12 -210 -1 -30 -6 -84 -14 -120 -19 -36 -5 -99 -16 -140
-25 -59 -13 -86 -14 -125 -6 -78 16 -122 21 -233 30 -74 6 -108 13 -120 24
-13 13 -13 20 -4 29 7 7 12 20 12 29 0 9 7 22 16 30 9 7 25 33 36 58 11 25 33
74 49 108 16 35 29 68 29 76 0 7 6 21 14 32 7 11 30 61 51 110 20 50 44 106
52 125 8 19 21 50 29 67 16 35 37 84 58 135 30 71 36 85 55 130 12 26 21 51
21 57 0 5 16 36 35 68 46 76 45 85 -5 82 -52 -4 -64 8 -44 46 34 66 -4 91 -93
61 -26 -9 -77 -16 -114 -16 -37 0 -71 -4 -74 -10 -3 -5 -26 -10 -49 -10 -24 0
-63 -9 -87 -20 -36 -16 -66 -20 -160 -20 -136 0 -166 -5 -199 -31 -21 -16 -23
-20 -10 -29 31 -22 386 8 442 36 15 8 45 14 68 14 22 0 56 6 74 14 18 7 61 17
94 21 l62 7 0 -29 c0 -16 -7 -38 -15 -49 -8 -10 -15 -31 -15 -45 0 -15 -7 -32
-15 -39 -8 -7 -15 -25 -15 -40 0 -15 -7 -33 -15 -40 -8 -7 -15 -22 -15 -34 0
-12 -7 -31 -15 -42 -8 -10 -15 -28 -15 -39 0 -11 -7 -29 -15 -39 -8 -11 -15
-28 -15 -39 0 -10 -6 -31 -14 -45 -26 -51 -46 -103 -46 -120 0 -9 -7 -26 -15
-36 -8 -11 -15 -29 -15 -41 0 -12 -7 -30 -15 -41 -8 -10 -15 -27 -15 -36 0 -9
-6 -29 -14 -45 -28 -56 -46 -104 -46 -121 0 -10 -7 -27 -15 -38 -8 -10 -15
-28 -15 -39 0 -12 -4 -25 -8 -30 -5 -6 -19 -39 -32 -75 -12 -36 -31 -72 -41
-81 -18 -17 -16 -17 -194 10 -38 6 -102 11 -140 11 -43 0 -76 5 -84 13 -6 6
-31 12 -54 12 -180 2 -218 5 -223 20 -4 9 7 50 24 93 32 81 71 226 99 365 3
15 10 26 16 24 12 -4 46 -102 47 -135 0 -13 5 -33 12 -45 6 -12 10 -37 10 -56
-1 -19 3 -40 9 -48 6 -7 15 -50 20 -95 10 -86 21 -110 40 -91 14 14 7 106 -15
208 -31 148 -37 171 -51 197 -8 14 -15 33 -15 42 0 9 -4 16 -10 16 -5 0 -13
12 -16 28 -4 15 -10 32 -14 37 -4 6 -22 55 -40 110 -18 55 -37 104 -41 110 -5
5 -9 17 -9 26 0 29 -95 203 -154 281 -182 243 -514 378 -826 336 -35 -4 -37
26 -5 85 25 48 25 49 25 303 l0 255 -36 67 c-33 61 -84 131 -126 174 -28 28
-27 64 2 73 11 3 20 15 20 25 0 12 5 17 13 14 18 -6 80 64 108 123 12 26 33
61 46 76 13 16 23 33 23 38 0 6 12 26 26 45 15 19 34 48 43 63 9 16 26 47 38
69 12 22 34 49 48 61 15 11 39 44 54 73 15 29 39 70 54 91 14 21 29 47 32 58
7 20 27 46 83 105 18 19 30 39 28 43 -3 4 17 32 45 62 27 30 64 82 80 117 17
34 34 62 38 62 4 0 22 20 41 45 18 25 42 47 52 51 11 3 17 11 15 18 -3 7 12
32 34 56 21 23 39 46 39 49 0 8 51 63 95 103 47 42 117 117 171 183 69 84 266
289 285 297 9 4 23 15 30 25 8 11 22 22 32 26 9 3 17 12 17 20 0 12 82 77 96
77 4 0 15 12 27 26 11 15 35 33 54 40 18 8 33 19 33 24 0 6 12 16 26 22 14 7
32 25 41 41 12 24 19 28 42 24 22 -5 37 2 77 39 27 24 64 49 82 56 17 7 32 16
32 20 0 4 7 8 15 8 8 0 24 9 34 19 26 26 75 51 100 51 11 0 25 9 31 20 6 11
29 24 53 30 23 6 50 15 59 20 10 6 20 10 23 10 12 0 3 -176 -15 -320 -30 -234
-39 -290 -55 -338 -9 -24 -20 -89 -26 -144 -5 -55 -14 -122 -19 -149 -5 -27
-7 -55 -4 -64 3 -8 -1 -43 -10 -77 -14 -58 -39 -294 -38 -363 0 -16 -6 -61
-13 -100 -7 -38 -19 -128 -25 -200 -7 -71 -17 -140 -22 -152 -6 -11 -7 -26 -4
-32 4 -6 0 -30 -8 -54 -9 -26 -12 -60 -9 -85 3 -23 1 -54 -5 -69 -6 -16 -13
-44 -16 -64 -9 -51 -61 -104 -125 -125 -29 -9 -59 -23 -67 -31 -18 -18 -68
-33 -114 -34 -33 0 -33 -1 -11 -10 32 -13 17 -28 -35 -35 -21 -3 -58 -14 -81
-25 -24 -10 -52 -19 -63 -19 -11 0 -44 -12 -73 -27 -60 -31 -115 -53 -137 -53
-9 0 -39 -23 -68 -51 -41 -41 -50 -55 -41 -66 9 -10 8 -18 -5 -31 -9 -10 -16
-35 -16 -55 0 -27 5 -37 21 -42 21 -7 30 -13 86 -65 32 -28 35 -29 105 -23 40
3 100 5 132 4 33 -1 74 3 90 9 17 5 61 11 98 13 43 2 74 9 85 19 19 17 163 25
198 12 16 -6 15 -9 -4 -23 -19 -15 -20 -18 -6 -44 10 -21 12 -34 5 -47 -6 -10
-10 -46 -10 -79 0 -37 -4 -61 -11 -61 -7 0 -8 -14 -4 -39 8 -49 -8 -83 -65
-133 -27 -25 -51 -38 -70 -38 -15 0 -61 -14 -101 -31 -41 -17 -92 -35 -114
-39 -22 -4 -58 -17 -80 -29 -21 -11 -50 -21 -62 -21 -13 0 -26 -7 -29 -15 -7
-17 -79 -61 -117 -70 -14 -4 -33 -18 -42 -31 -11 -18 -22 -23 -36 -19 -27 9
-35 -19 -15 -50 9 -13 16 -29 16 -34 0 -14 -73 -83 -152 -142 -85 -64 -83 -84
5 -74 34 4 79 13 102 19 l40 12 3 82 c2 45 6 82 11 82 4 0 29 18 54 40 25 22
50 40 55 40 6 0 17 6 24 13 7 7 63 35 123 62 61 27 114 52 120 57 5 4 19 8 32
8 12 0 37 6 55 14 44 18 140 46 162 46 9 0 28 7 41 16 14 9 34 14 45 11 46
-12 79 52 80 158 0 28 7 61 15 75 8 14 15 53 15 90 1 36 8 83 16 105 8 22 17
84 20 138 5 95 4 97 -19 108 -20 9 -34 7 -72 -10 -26 -12 -55 -21 -64 -21 -10
0 -26 -7 -37 -15 -10 -8 -41 -15 -69 -15 -27 0 -61 -7 -75 -15 -14 -8 -49 -14
-78 -15 -29 0 -65 -6 -80 -14 -33 -16 -290 -28 -337 -15 -108 30 -43 113 135
174 30 11 59 23 65 27 5 4 26 8 46 8 20 0 42 7 49 15 7 8 23 15 37 15 13 0 26
7 29 15 4 8 15 15 27 15 23 0 104 36 113 51 3 5 16 9 30 9 14 0 27 7 30 15 4
8 14 15 24 15 10 0 23 7 30 15 7 8 25 15 40 15 16 0 30 7 34 15 3 8 16 15 29
15 14 0 30 7 37 15 7 8 20 15 30 15 40 0 56 49 70 225 14 162 27 263 39 305 6
19 11 66 11 105 0 38 7 95 15 125 8 30 15 73 15 96 0 22 7 85 15 140 8 54 15
127 15 162 0 35 5 72 10 83 6 10 15 65 21 122 19 202 26 253 37 287 13 43 31
157 42 270 5 47 13 101 19 120 6 19 11 71 11 115 1 44 7 107 15 140 8 33 15
79 15 102 0 24 7 60 16 82 19 48 15 95 -7 99 -10 2 -46 -14 -80 -36 -35 -21
-98 -55 -139 -77 -41 -21 -91 -49 -110 -61 -19 -13 -38 -24 -42 -24 -37 0
-493 -298 -543 -356 -5 -6 -37 -31 -70 -56 -90 -68 -424 -405 -523 -527 -20
-25 -48 -57 -62 -71 -14 -14 -61 -70 -105 -125 -44 -55 -85 -104 -91 -110 -6
-5 -33 -39 -59 -75 -27 -36 -55 -69 -62 -73 -7 -4 -13 -12 -13 -18 0 -5 -47
-72 -105 -149 -58 -77 -105 -142 -105 -145 0 -3 -5 -11 -10 -18 -6 -7 -41 -59
-79 -117 -37 -58 -93 -144 -124 -192 -32 -48 -57 -89 -57 -92 0 -5 -66 -108
-101 -158 -10 -15 -19 -34 -19 -41 0 -8 -7 -20 -15 -27 -8 -7 -15 -21 -15 -32
0 -10 -7 -21 -15 -24 -8 -4 -15 -17 -15 -30 0 -12 -6 -27 -14 -31 -8 -4 -16
-19 -18 -32 -2 -14 -13 -27 -26 -32 -20 -8 -33 0 -91 56 -37 36 -85 75 -107
86 -21 12 -41 25 -44 29 -3 4 -17 10 -32 14 -16 3 -28 11 -28 16 0 6 -9 10
-19 10 -11 0 -26 6 -33 13 -7 6 -30 21 -51 31 -57 30 -116 84 -154 144 -19 30
-49 71 -67 91 -18 20 -54 65 -81 101 -27 36 -54 70 -60 75 -7 6 -27 30 -46 55
-19 24 -41 52 -49 60 -8 9 -46 52 -85 95 -180 204 -536 570 -725 745 -58 55
-282 239 -375 310 -39 30 -85 65 -101 77 -102 79 -260 188 -309 213 -11 6 -33
19 -50 30 -16 11 -39 24 -50 30 -11 6 -33 19 -50 30 -16 11 -37 23 -45 26 -8
3 -35 17 -60 29 -105 55 -312 155 -321 155 -5 0 -37 13 -71 29 -35 16 -83 37
-108 46 -25 9 -58 23 -73 31 -16 8 -35 14 -44 14 -15 0 -65 19 -116 46 -16 8
-37 14 -47 14 -11 0 -36 7 -57 16 -21 9 -54 23 -73 31 -19 8 -52 23 -72 34
-44 23 -54 24 -61 5z m268 -205 c3 -5 20 -13 38 -16 43 -10 215 -72 252 -92
17 -8 54 -28 83 -44 28 -16 52 -26 52 -23 0 4 11 -1 25 -10 13 -9 33 -16 44
-16 11 0 44 -13 73 -28 29 -16 103 -55 165 -87 62 -32 122 -66 133 -77 11 -11
36 -26 55 -33 18 -8 36 -19 40 -25 3 -5 15 -10 27 -10 11 0 37 -13 57 -30 69
-57 87 -70 201 -151 63 -44 138 -101 167 -125 28 -24 55 -44 60 -44 5 0 33
-24 61 -52 54 -56 137 -128 146 -128 9 0 70 -44 104 -76 24 -22 31 -36 26 -49
-6 -16 -4 -17 21 -11 25 6 27 5 22 -14 -4 -17 -2 -20 14 -15 14 5 21 0 29 -19
5 -14 15 -26 23 -26 12 0 97 -83 97 -95 0 -12 129 -135 142 -135 19 0 38 -20
38 -41 0 -9 16 -27 35 -40 19 -13 40 -34 46 -46 7 -13 23 -30 36 -38 12 -9 23
-22 23 -30 0 -8 4 -15 10 -15 5 0 24 -13 42 -29 18 -15 38 -30 43 -32 6 -2 30
-25 54 -51 38 -42 41 -48 22 -48 -29 0 -26 -18 4 -26 24 -6 90 -90 108 -137 3
-9 13 -17 21 -17 8 0 16 -10 18 -22 2 -13 13 -27 26 -33 14 -6 22 -18 22 -33
0 -15 7 -26 20 -29 11 -3 20 -9 20 -14 0 -4 14 -24 30 -42 34 -40 46 -85 28
-108 -8 -10 -36 -19 -73 -23 -191 -20 -201 -23 -340 -74 -153 -57 -284 -155
-366 -275 -54 -78 -129 -226 -129 -253 0 -12 -7 -27 -15 -34 -8 -7 -15 -27
-15 -44 0 -17 -7 -44 -15 -60 -11 -21 -15 -64 -15 -171 0 -107 4 -150 15 -171
8 -16 15 -39 15 -50 0 -12 7 -27 15 -34 8 -7 15 -19 15 -28 0 -8 8 -24 17 -34
12 -14 14 -21 5 -30 -8 -8 -20 -5 -47 11 -20 11 -45 21 -57 21 -11 0 -34 6
-51 13 -55 23 -134 47 -156 47 -11 0 -35 6 -53 14 -58 23 -135 46 -159 46 -13
0 -37 7 -53 15 -15 8 -41 15 -57 15 -17 0 -46 7 -66 15 -19 8 -56 15 -82 15
-25 0 -89 7 -141 15 -52 8 -111 12 -132 9 -47 -8 -50 -1 -119 216 -11 36 -26
79 -33 95 -19 44 -37 96 -46 131 -4 18 -11 38 -16 45 -12 19 -33 98 -34 127 0
13 6 22 15 22 8 0 15 -4 15 -9 0 -15 110 -28 215 -26 55 2 174 -1 265 -6 320
-16 425 -12 450 19 8 10 23 21 33 25 9 3 17 15 17 25 0 10 5 23 11 29 7 7 9
28 5 57 -6 38 -13 49 -37 62 -23 11 -29 20 -24 35 5 13 2 19 -10 19 -9 0 -32
8 -53 19 -20 10 -55 21 -77 25 -22 4 -49 13 -60 20 -11 7 -63 21 -115 31 -52
10 -126 29 -165 41 -38 12 -88 25 -110 29 -22 4 -51 10 -65 15 -34 10 -164 46
-222 61 -26 6 -52 17 -57 23 -5 6 -21 51 -36 99 -15 49 -33 91 -41 94 -15 5
-39 76 -49 143 -4 25 -18 68 -31 95 -13 29 -21 60 -18 72 4 16 1 21 -11 20
-14 -2 -17 9 -20 67 -1 49 -7 73 -18 81 -8 6 -18 33 -22 60 -4 28 -15 62 -26
77 -29 41 -63 188 -40 174 6 -4 11 -2 11 3 0 6 -6 11 -13 11 -16 0 -36 39 -48
90 -30 135 -58 224 -73 232 -10 5 -16 22 -16 42 0 22 -6 36 -16 40 -12 4 -14
14 -9 36 4 20 2 37 -6 47 -7 8 -23 47 -35 87 -12 39 -38 118 -57 176 -20 58
-45 139 -57 180 -12 41 -28 89 -35 105 -36 85 -39 102 -21 129 17 27 31 33 41
17z m2889 -2280 c14 -5 16 -10 8 -15 -15 -9 -52 2 -52 15 0 11 17 11 44 0z
m91 -87 c82 -17 212 -71 235 -99 7 -8 19 -15 27 -15 17 0 108 -58 144 -92 27
-25 99 -123 99 -134 0 -20 76 -114 105 -129 51 -28 60 -80 57 -348 l-2 -219
-36 -69 c-30 -56 -57 -88 -133 -156 -55 -48 -122 -97 -157 -114 -122 -59 -277
-61 -439 -7 -82 28 -134 53 -320 154 -33 18 -88 47 -122 66 -82 44 -255 196
-288 253 -15 25 -47 89 -70 141 -24 53 -55 109 -69 123 -30 31 -32 47 -12 93
8 18 28 65 44 104 16 40 51 104 76 142 25 39 46 75 46 81 0 15 48 49 88 61 58
18 100 40 207 110 91 59 106 65 165 70 104 8 269 1 355 -16z m4674 -508 c-12
-10 -99 -16 -99 -7 0 7 22 11 52 11 28 0 49 -2 47 -4z m47 -47 c3 -6 2 -15 -3
-20 -13 -13 -43 -1 -43 17 0 16 36 19 46 3z m-5772 -74 c4 -24 11 -47 15 -50
9 -5 27 -130 23 -155 -12 -62 27 -175 51 -151 9 9 8 19 -5 42 -10 16 -15 36
-12 43 3 8 1 17 -5 21 -16 9 -13 42 4 48 14 6 26 -10 60 -83 9 -19 38 -57 64
-85 27 -27 67 -77 90 -109 22 -32 49 -65 59 -72 10 -6 74 -36 142 -66 69 -29
151 -70 182 -90 47 -31 55 -40 51 -59 -4 -16 -2 -20 8 -17 8 3 13 13 13 22 -2
23 19 20 49 -8 15 -14 36 -27 47 -31 11 -3 20 -10 20 -14 0 -8 60 -31 100 -39
14 -3 105 -6 202 -6 129 -1 180 2 189 12 7 6 24 12 37 12 26 0 82 30 120 63
17 16 22 17 22 5 0 -8 -23 -34 -50 -58 -71 -61 -89 -73 -105 -66 -8 3 -17 -3
-20 -15 -4 -10 -15 -19 -26 -19 -10 0 -19 -4 -19 -9 0 -5 -13 -14 -30 -20 -16
-5 -30 -15 -30 -20 0 -6 -13 -11 -28 -11 -16 0 -37 -7 -48 -15 -12 -9 -43 -14
-82 -15 -34 0 -79 -7 -100 -16 -57 -24 -266 -31 -316 -10 -21 9 -56 16 -78 16
-22 0 -56 7 -76 16 -67 29 -122 58 -122 66 0 5 -4 8 -10 8 -32 0 -169 119
-170 148 0 6 -4 12 -8 12 -4 0 -27 29 -50 64 -23 35 -61 84 -85 109 -30 31
-49 62 -62 103 -10 32 -21 64 -24 69 -18 29 -34 142 -34 235 1 204 29 318 47
195z m2088 -631 c29 -9 62 -20 73 -25 11 -5 31 -13 45 -19 14 -5 32 -14 40
-19 8 -4 31 -16 50 -26 82 -43 180 -126 239 -203 65 -87 145 -230 156 -283 4
-19 12 -39 17 -46 28 -35 30 -306 1 -387 -7 -21 -13 -49 -13 -62 0 -13 -6 -38
-14 -56 -21 -50 -42 -108 -56 -154 -21 -70 -14 -67 -151 -54 -68 6 -279 16
-469 21 -190 6 -415 14 -500 17 l-155 7 -3 140 c-2 98 -7 149 -17 172 -8 17
-15 41 -15 53 0 12 -6 34 -14 48 -7 15 -22 45 -32 67 -37 78 -117 172 -194
228 -67 48 -154 89 -181 85 -21 -3 -16 -8 31 -32 30 -15 67 -34 81 -42 36 -19
172 -153 190 -186 8 -15 31 -59 52 -98 20 -40 37 -86 37 -104 0 -18 6 -38 13
-44 19 -20 23 -257 4 -324 -8 -29 -18 -74 -22 -100 -3 -26 -10 -50 -16 -53 -5
-4 -9 -13 -9 -22 0 -23 -30 -81 -77 -151 -24 -35 -43 -66 -43 -68 0 -3 -31
-36 -68 -73 -107 -106 -175 -146 -337 -197 -51 -16 -91 -19 -272 -19 -156 0
-215 3 -224 13 -7 6 -26 12 -42 12 -16 0 -41 6 -55 14 -15 8 -47 22 -72 32
-90 37 -194 121 -264 214 -46 62 -55 76 -106 175 -20 39 -46 85 -57 103 -32
52 -47 188 -35 317 6 59 15 112 21 118 6 6 11 22 11 37 0 14 7 38 15 53 8 15
17 43 21 62 3 19 12 39 20 46 8 6 14 15 14 19 0 17 74 120 86 120 8 0 14 4 14
9 0 12 115 131 127 131 6 0 18 10 29 21 10 12 29 25 42 30 12 5 22 15 22 24 0
8 7 15 15 15 8 0 15 5 15 10 0 6 16 10 35 10 33 0 35 2 29 26 -6 25 -5 27 22
21 24 -4 34 1 62 34 40 46 71 50 122 16 33 -22 73 -42 163 -81 21 -9 49 -16
63 -16 13 0 41 -7 61 -15 19 -8 60 -15 91 -15 30 0 72 -5 93 -12 29 -8 45 -8
62 0 12 6 60 13 107 17 47 3 89 10 94 15 6 6 31 10 56 10 25 0 55 7 66 15 10
8 29 15 41 15 98 1 397 250 467 388 l17 33 165 -5 c108 -4 182 -11 216 -22z
m-1995 -81 c28 -43 70 -98 92 -123 23 -25 41 -49 41 -55 0 -13 -57 -45 -80
-45 -10 0 -22 -5 -25 -11 -4 -5 -17 -15 -28 -20 -84 -37 -244 -155 -319 -233
-120 -128 -219 -390 -202 -538 7 -59 3 -65 -30 -52 -8 3 -40 56 -71 117 -31
62 -64 126 -75 142 -10 17 -31 53 -45 80 -14 28 -34 64 -45 80 -11 17 -24 39
-30 50 -5 11 -14 27 -19 35 -5 8 -12 22 -15 30 -4 8 -15 29 -26 45 -11 17 -24
39 -30 50 -6 11 -26 47 -45 80 -19 33 -39 69 -45 80 -6 11 -26 47 -45 80 -80
142 -81 146 -62 160 10 7 44 18 75 24 31 5 109 22 172 37 196 45 344 61 585
63 l220 1 52 -77z m-1097 -235 c0 -5 14 -27 30 -50 17 -22 30 -47 30 -55 0 -7
7 -13 16 -13 11 0 13 -6 9 -19 -4 -14 0 -23 15 -31 11 -6 20 -19 20 -29 0 -10
7 -24 15 -31 8 -7 15 -18 15 -25 0 -7 7 -18 15 -25 23 -19 19 -42 -7 -38 -15
2 -23 10 -23 23 -1 23 -42 95 -55 95 -4 0 -15 12 -25 26 -12 19 -14 29 -5 39
8 10 -2 24 -45 62 -55 49 -75 92 -61 129 5 14 11 11 31 -16 14 -19 25 -38 25
-42z m210 -343 c0 -8 -4 -15 -9 -15 -13 0 -22 16 -14 24 11 11 23 6 23 -9z
m19 -77 c-8 -14 -14 -17 -22 -9 -7 7 -6 15 3 25 17 22 32 9 19 -16z m71 -104
c0 -8 -4 -14 -10 -14 -5 0 -10 9 -10 21 0 11 5 17 10 14 6 -3 10 -13 10 -21z
m5466 -38 c67 -23 140 -28 154 -11 13 15 53 12 78 -8 7 -5 38 -12 70 -16 50
-5 57 -9 60 -29 4 -28 27 -39 47 -22 12 10 12 16 4 26 -18 21 12 27 102 21 49
-3 89 -11 105 -22 14 -9 33 -14 42 -10 26 11 286 5 324 -6 18 -6 64 -14 102
-19 38 -4 72 -13 76 -20 4 -7 39 -15 79 -18 58 -4 69 -7 60 -18 -9 -11 -3 -15
31 -20 23 -4 58 -18 78 -31 29 -20 40 -23 54 -14 36 22 94 8 83 -21 -5 -12 6
-16 54 -21 48 -4 68 -11 98 -36 22 -18 49 -31 65 -31 15 0 33 -8 40 -17 7 -10
34 -28 61 -41 26 -13 47 -29 47 -35 0 -19 -65 -49 -200 -94 -25 -8 -70 -28
-101 -44 -31 -16 -66 -29 -77 -29 -12 0 -24 -4 -27 -10 -3 -5 -15 -10 -27 -10
-11 0 -32 -6 -46 -14 -80 -43 -168 -79 -205 -83 -23 -3 -49 -11 -57 -18 -23
-18 -104 -55 -122 -55 -9 0 -21 -7 -28 -15 -7 -8 -20 -15 -30 -15 -30 0 -110
-40 -110 -55 0 -22 -14 -25 -51 -12 -63 23 -190 103 -275 174 -28 24 -56 43
-63 43 -22 0 -11 -55 19 -89 17 -18 30 -37 30 -41 0 -4 21 -36 46 -70 34 -47
43 -65 33 -71 -16 -10 -68 0 -94 18 -11 7 -36 13 -55 13 -20 0 -45 7 -56 15
-10 8 -33 15 -50 15 -17 0 -48 7 -67 15 -20 8 -51 15 -69 15 -18 1 -44 7 -58
15 -14 8 -46 14 -71 15 -25 0 -54 7 -65 15 -10 8 -35 15 -54 15 -19 0 -48 7
-64 15 -15 8 -42 15 -60 15 -17 0 -44 7 -60 15 -15 8 -47 15 -71 15 -23 0 -59
7 -78 15 -20 8 -53 15 -74 15 -21 1 -49 7 -63 15 -14 8 -42 14 -64 15 -21 0
-55 4 -75 10 -20 5 -58 12 -84 15 -31 4 -47 11 -44 18 4 13 163 30 277 30 85
1 219 -18 233 -32 6 -6 23 -11 37 -11 14 0 36 -7 48 -16 31 -22 84 -15 98 13
6 13 18 31 27 41 10 10 17 24 17 30 0 7 4 12 9 12 5 0 14 12 20 28 12 30 29
59 49 80 6 7 12 18 12 23 0 5 5 9 10 9 6 0 10 -7 10 -15 0 -8 5 -15 10 -15 6
0 10 8 10 18 0 9 9 31 20 47 11 17 17 38 14 48 -3 11 0 17 10 17 8 0 18 10 22
23 4 12 9 24 13 27 13 11 51 70 51 80 0 6 -7 13 -15 17 -9 3 -22 21 -30 39
-13 31 -18 34 -57 34 -24 0 -52 7 -62 15 -11 8 -34 15 -51 15 -17 0 -39 6 -50
14 -11 7 -42 16 -69 18 -26 3 -55 13 -64 22 -15 15 -11 16 50 16 36 0 83 -6
104 -14z m-6872 -21 c11 -8 28 -15 39 -15 17 0 145 -91 203 -145 36 -34 20
-32 -25 3 -20 16 -54 39 -76 52 -22 13 -50 34 -62 47 -12 12 -28 20 -35 18
-17 -7 -108 32 -108 45 0 15 43 11 64 -5z m3586 -446 c47 -5 198 -9 335 -9
138 -1 300 -6 360 -11 61 -5 220 -14 355 -18 135 -5 281 -14 325 -20 151 -21
250 -31 395 -41 80 -6 158 -15 174 -20 16 -6 48 -10 70 -10 23 0 68 -7 99 -15
32 -8 79 -15 105 -15 26 0 65 -5 87 -11 22 -5 76 -14 120 -19 139 -15 314 -49
670 -129 188 -42 263 -61 328 -82 31 -10 66 -19 77 -19 25 0 102 -18 155 -36
23 -8 59 -14 82 -14 23 0 45 -4 48 -10 3 -5 27 -10 53 -10 26 -1 71 -9 101
-19 57 -20 141 -83 141 -106 0 -7 14 -25 31 -39 41 -35 191 -106 223 -106 14
0 27 -4 30 -9 3 -4 27 -14 53 -21 27 -8 84 -31 127 -52 44 -21 88 -38 97 -38
10 0 21 -4 24 -10 3 -5 15 -10 26 -10 11 0 22 -6 25 -14 3 -8 19 -18 36 -21
40 -9 167 -64 218 -94 8 -5 26 -14 40 -20 14 -6 32 -15 40 -19 25 -15 84 -40
107 -47 11 -3 24 -12 27 -20 3 -8 14 -15 24 -15 11 0 31 -11 46 -25 15 -14 38
-25 52 -25 14 0 24 -6 24 -14 0 -8 15 -17 34 -20 19 -4 40 -14 47 -22 7 -9 35
-27 63 -41 59 -30 108 -63 119 -80 4 -7 21 -13 36 -13 20 0 40 -13 72 -46 44
-46 94 -84 152 -116 17 -10 40 -27 51 -38 12 -12 52 -44 90 -72 38 -28 76 -64
85 -80 9 -15 24 -28 33 -28 10 0 23 -9 30 -21 7 -11 37 -38 66 -60 28 -22 52
-46 52 -54 0 -7 8 -16 18 -19 9 -3 46 -34 82 -69 60 -57 66 -66 68 -107 2 -47
-25 -126 -64 -190 -29 -48 -63 -122 -128 -280 -31 -74 -68 -156 -81 -181 -14
-26 -25 -56 -25 -67 0 -24 -19 -72 -71 -182 -53 -110 -56 -117 -69 -167 -6
-24 -15 -43 -20 -43 -6 0 -10 5 -10 10 0 6 -5 10 -11 10 -6 0 -8 -15 -4 -43 5
-33 3 -46 -9 -56 -8 -7 -18 -33 -22 -57 -3 -24 -12 -44 -18 -44 -12 0 -76
-129 -76 -154 0 -7 -6 -19 -14 -25 -8 -7 -14 -27 -13 -46 1 -20 -7 -42 -17
-54 -10 -11 -30 -53 -43 -93 -14 -40 -36 -87 -49 -104 -14 -20 -21 -39 -17
-52 3 -12 -3 -33 -14 -49 -11 -15 -34 -62 -52 -103 -37 -83 -145 -310 -167
-352 -8 -14 -14 -34 -14 -43 0 -10 -13 -40 -30 -67 -16 -26 -30 -55 -30 -63 0
-8 -16 -48 -35 -89 -19 -41 -35 -80 -35 -86 0 -7 -8 -9 -20 -5 -18 6 -20 2
-20 -37 0 -24 -10 -63 -22 -88 -11 -25 -20 -52 -19 -61 1 -9 -5 -22 -14 -29
-8 -7 -15 -20 -15 -29 0 -10 -13 -44 -30 -76 -16 -32 -30 -64 -30 -71 0 -6 -7
-17 -15 -24 -8 -7 -15 -21 -15 -32 0 -10 -16 -53 -35 -94 -19 -41 -35 -81 -35
-88 0 -7 -6 -19 -14 -25 -7 -6 -16 -25 -20 -41 -12 -63 -69 -47 -135 35 -24
30 -49 55 -56 55 -6 0 -29 16 -51 36 -21 20 -49 43 -61 51 -13 9 -23 22 -23
29 0 8 -8 14 -18 14 -10 0 -33 18 -51 40 -17 22 -38 40 -46 40 -8 0 -30 14
-50 31 -38 33 -101 69 -122 69 -7 0 -13 8 -13 17 0 21 -29 53 -48 53 -8 0 -29
11 -46 24 -17 13 -42 27 -56 31 -14 4 -39 20 -55 36 -38 35 -141 77 -190 77
-21 0 -42 5 -47 10 -12 12 -40 4 -51 -14 -5 -9 -19 -11 -40 -8 -36 7 -138 39
-165 53 -9 5 -37 17 -62 26 -25 9 -57 23 -72 31 -14 8 -34 14 -43 14 -9 0 -29
6 -43 14 -58 30 -194 81 -502 186 -80 27 -176 61 -215 74 -38 14 -78 26 -88
26 -11 0 -33 6 -50 14 -18 7 -66 23 -107 36 -41 12 -86 26 -100 30 -14 5 -44
12 -67 15 -24 4 -45 11 -49 16 -3 5 -19 9 -36 9 -16 0 -44 6 -61 14 -34 14
-112 33 -192 45 -27 4 -66 12 -85 18 -38 13 -130 30 -229 44 -35 5 -77 13 -95
18 -36 11 -185 30 -331 41 -55 4 -136 14 -180 21 -60 9 -236 13 -690 12 -512
0 -628 -3 -723 -17 -62 -9 -164 -16 -227 -16 -62 0 -125 -4 -139 -10 -14 -5
-93 -14 -175 -19 -82 -5 -155 -12 -162 -16 -6 -4 -55 -12 -108 -16 -168 -15
-335 -36 -364 -48 -16 -6 -57 -11 -92 -11 -35 0 -90 -7 -122 -15 -31 -8 -76
-15 -100 -15 -23 0 -52 -5 -65 -10 -13 -6 -59 -15 -103 -20 -137 -18 -198 -27
-245 -39 -41 -9 -115 -23 -195 -37 -16 -3 -59 -12 -95 -20 -36 -8 -108 -23
-160 -34 -52 -11 -144 -34 -205 -50 -60 -17 -154 -42 -207 -55 -54 -14 -121
-34 -150 -44 -29 -11 -80 -27 -113 -36 -33 -9 -88 -30 -121 -46 -34 -16 -68
-29 -77 -29 -8 0 -20 -7 -27 -15 -7 -8 -19 -15 -28 -15 -17 0 -78 -29 -127
-61 -16 -10 -37 -21 -45 -25 -8 -3 -24 -10 -35 -14 -46 -20 -91 -27 -115 -17
-45 18 -83 14 -124 -15 -21 -15 -43 -28 -48 -28 -5 0 -30 -15 -56 -32 -49 -34
-92 -60 -129 -77 -13 -6 -23 -20 -23 -31 0 -13 -7 -20 -20 -20 -11 0 -20 -6
-20 -14 0 -7 -24 -32 -54 -55 -30 -23 -57 -49 -60 -56 -3 -8 -12 -12 -20 -9
-7 3 -20 -3 -27 -14 -8 -10 -27 -26 -44 -35 -31 -16 -81 -66 -126 -127 -46
-61 -124 -136 -147 -142 -20 -6 -28 2 -56 45 -18 29 -53 102 -77 162 -24 61
-47 112 -50 115 -5 4 -43 82 -63 130 -3 8 -10 22 -15 30 -18 31 -71 151 -71
160 0 5 -13 39 -30 75 -16 36 -30 69 -30 74 0 5 -7 11 -15 15 -11 4 -13 14 -8
37 4 22 2 35 -8 43 -8 6 -21 31 -28 56 -7 25 -24 63 -37 86 -13 22 -24 52 -24
66 0 22 -26 70 -82 151 -11 16 -17 34 -15 41 3 8 -3 28 -14 45 -10 17 -19 36
-19 41 0 5 -13 28 -28 52 -16 24 -37 66 -47 93 -10 28 -23 57 -30 65 -7 8 -16
26 -20 40 -4 14 -20 50 -35 80 -15 30 -31 65 -35 78 -3 12 -11 22 -16 22 -5 0
-9 16 -7 36 1 25 -3 39 -15 45 -9 6 -17 18 -17 28 0 10 -9 30 -20 44 -11 14
-20 34 -20 45 0 11 -7 22 -15 26 -8 3 -15 18 -15 32 0 15 -6 35 -14 43 -8 9
-28 52 -46 96 -17 44 -38 87 -45 95 -8 9 -20 40 -26 70 -7 30 -18 62 -26 71
-7 8 -13 30 -13 48 0 26 -3 32 -15 27 -9 -3 -17 0 -19 7 -9 37 -40 127 -56
162 -10 22 -20 47 -24 55 -3 8 -10 22 -15 30 -14 22 -130 269 -157 335 -7 17
-28 64 -47 105 -87 186 -87 187 -9 266 31 33 66 66 77 76 11 9 35 32 53 52 18
20 36 36 41 36 4 0 26 19 48 43 22 23 70 67 106 97 37 30 82 68 100 83 17 16
48 37 67 47 19 10 48 32 64 49 17 17 35 31 43 31 7 0 17 8 22 19 12 21 131
101 152 101 8 0 22 9 32 20 9 11 23 20 31 20 7 0 20 7 27 17 8 9 50 33 94 55
47 22 83 47 87 58 9 24 26 26 34 5 9 -21 23 -19 17 3 -3 14 10 24 59 47 35 16
68 28 74 27 6 -1 17 5 24 13 7 8 21 15 31 15 10 0 23 9 29 20 6 11 19 20 30
20 10 0 49 16 87 35 37 19 73 35 80 35 7 0 16 6 20 14 11 18 47 36 73 36 11 0
38 11 60 25 22 14 47 25 56 25 9 0 44 13 78 29 33 16 78 36 99 45 20 9 37 23
37 31 0 8 6 15 14 15 8 0 19 14 25 30 6 17 21 34 35 40 15 5 26 14 26 20 0 5
6 10 13 10 6 0 23 6 37 13 14 7 59 24 100 37 41 13 79 27 85 32 5 4 16 8 25 8
8 0 27 6 42 14 15 8 40 17 57 21 17 4 33 11 36 16 4 5 14 9 24 9 17 0 61 42
61 59 0 4 8 18 17 29 10 12 26 33 36 47 10 14 22 25 26 25 10 0 31 -46 31 -70
0 -25 26 -32 75 -19 22 6 59 14 83 19 24 6 47 12 52 15 5 3 28 9 52 14 24 5
124 30 223 56 99 26 198 51 220 55 22 4 78 17 125 29 47 11 100 21 118 21 18
0 41 4 50 9 10 5 49 14 87 20 143 23 231 39 275 49 25 6 99 18 165 27 66 9
134 21 150 26 17 5 58 12 92 16 59 6 63 5 72 -18 38 -101 112 -230 176 -307
137 -165 308 -253 540 -279 132 -14 388 -4 409 17 6 6 21 10 34 10 13 0 40 7
60 16 53 22 126 58 132 64 3 3 25 19 49 35 101 68 218 211 271 330 13 28 26
57 31 66 4 9 13 45 19 79 15 82 29 112 49 105 9 -4 54 -11 101 -16z m4008
-436 c-4 -22 -22 -20 -26 1 -2 10 3 16 13 16 10 0 15 -7 13 -17z m-3043 -3703
c28 -5 115 -12 195 -16 80 -4 151 -11 157 -16 7 -6 56 -12 109 -14 54 -2 102
-9 109 -14 7 -6 41 -13 76 -16 35 -3 73 -9 84 -14 11 -5 51 -11 89 -14 37 -3
74 -10 81 -16 7 -6 37 -14 66 -17 30 -4 60 -12 67 -20 7 -7 31 -13 51 -13 21
0 55 -7 74 -15 20 -8 49 -15 65 -15 16 0 35 -7 42 -15 7 -9 29 -15 55 -15 26
0 48 -6 55 -15 7 -8 29 -15 49 -15 20 0 45 -7 55 -15 11 -8 37 -15 57 -15 21
0 41 -4 44 -10 3 -5 16 -10 28 -10 12 0 34 -6 49 -14 14 -8 45 -17 67 -21 23
-4 43 -11 47 -16 3 -5 15 -9 28 -9 12 0 31 -7 42 -15 10 -8 30 -15 44 -15 14
0 34 -6 45 -14 11 -7 34 -16 50 -18 17 -3 55 -16 85 -28 30 -12 69 -25 85 -30
17 -5 59 -20 95 -33 36 -14 110 -42 165 -62 202 -76 230 -87 267 -106 10 -5
26 -9 37 -9 10 0 24 -7 31 -15 7 -8 18 -15 24 -15 6 0 17 -4 25 -9 12 -7 8
-15 -17 -41 -21 -20 -32 -41 -32 -60 0 -15 -7 -33 -14 -40 -8 -6 -20 -27 -26
-45 -6 -19 -24 -61 -41 -95 -16 -33 -29 -66 -29 -74 0 -7 -9 -21 -20 -31 -11
-10 -20 -26 -20 -37 0 -10 -4 -18 -10 -18 -5 0 -10 -7 -10 -16 0 -9 -9 -33
-19 -53 -11 -20 -36 -70 -57 -111 -20 -41 -55 -109 -76 -150 -21 -41 -38 -82
-38 -91 0 -9 -9 -28 -21 -42 -18 -24 -39 -67 -126 -257 -14 -30 -38 -74 -53
-97 -17 -25 -24 -45 -19 -50 6 -6 -6 -41 -31 -91 -22 -45 -40 -84 -40 -87 0
-4 -24 -56 -53 -118 -29 -62 -64 -139 -77 -172 -13 -33 -31 -68 -39 -78 -22
-26 -61 -18 -80 16 -11 20 -35 36 -76 53 -33 13 -67 33 -77 44 -9 11 -20 20
-26 20 -5 0 -17 9 -27 20 -10 11 -25 20 -33 20 -9 0 -39 13 -69 30 -54 31
-175 77 -226 87 -16 3 -31 12 -34 19 -3 9 -20 14 -43 14 -22 0 -47 8 -62 19
-13 11 -38 23 -54 26 -16 4 -69 20 -117 36 -49 16 -96 29 -105 29 -9 0 -53 12
-97 26 -93 29 -171 46 -236 50 -26 1 -69 14 -97 28 -27 14 -58 23 -69 20 -28
-8 -199 14 -248 30 -38 13 -308 37 -465 41 -41 1 -115 7 -164 14 -96 12 -897
18 -1006 8 -36 -4 -141 -13 -235 -22 -93 -8 -206 -19 -250 -25 -44 -6 -116
-14 -160 -19 -192 -20 -292 -33 -320 -42 -16 -6 -52 -12 -78 -14 -27 -2 -54
-8 -60 -14 -6 -6 -34 -11 -63 -11 -34 0 -56 -5 -64 -15 -7 -8 -22 -15 -33 -15
-11 0 -66 -13 -124 -30 -57 -16 -111 -30 -121 -30 -10 0 -25 -9 -35 -20 -11
-13 -29 -20 -53 -20 -20 0 -52 -9 -71 -21 -29 -18 -36 -19 -50 -7 -15 11 -16
11 -10 -4 5 -15 1 -18 -28 -18 -19 0 -55 -11 -81 -25 -26 -14 -59 -25 -74 -25
-15 0 -33 -6 -39 -14 -7 -8 -25 -18 -41 -21 -16 -4 -40 -15 -54 -26 -39 -31
-164 -99 -182 -99 -10 0 -14 -6 -11 -14 6 -15 -22 -46 -41 -46 -6 0 -25 -17
-44 -38 -18 -21 -48 -45 -65 -53 -18 -8 -33 -17 -33 -21 0 -5 -7 -8 -15 -8
-18 0 -63 75 -71 121 -4 19 -27 76 -51 128 -24 52 -51 117 -60 145 -9 28 -27
66 -40 85 -13 19 -23 48 -23 65 0 17 -6 41 -14 52 -13 18 -49 98 -128 279 -70
164 -99 224 -109 231 -5 3 -9 13 -9 22 0 9 -9 28 -20 42 -11 14 -20 33 -20 43
0 10 -11 37 -24 60 -13 23 -27 56 -31 74 -3 17 -13 37 -21 44 -8 6 -14 15 -14
20 0 5 -8 28 -19 52 -10 23 -24 58 -32 77 -7 19 -21 46 -31 59 -10 13 -18 32
-18 42 0 10 -4 21 -10 24 -5 3 -10 22 -10 42 0 29 -2 33 -14 24 -21 -18 -28 2
-20 55 6 39 4 47 -15 60 -11 8 -21 21 -21 28 0 16 -27 29 -41 20 -5 -3 -9 6
-9 21 0 18 8 29 28 37 15 7 34 17 42 23 8 7 31 18 50 25 19 7 41 18 49 24 7 5
18 11 25 12 6 1 59 22 116 47 58 25 139 55 180 67 41 12 98 29 125 37 28 8 64
19 80 25 17 6 46 13 65 15 19 3 40 9 46 15 7 5 36 11 65 15 30 3 63 12 74 19
11 8 33 14 50 14 16 0 39 7 49 15 11 8 40 15 65 15 25 0 55 7 65 15 11 8 41
15 67 15 26 0 50 4 54 9 3 5 36 12 73 16 37 3 74 10 83 15 9 5 45 12 80 16 35
3 69 10 74 14 6 4 48 11 95 15 47 4 90 10 95 15 6 4 43 10 83 14 41 3 82 11
92 16 10 6 40 10 67 10 26 0 66 5 88 11 22 6 84 15 139 20 54 5 103 12 110 17
6 5 62 12 125 16 63 3 119 10 125 16 5 5 51 10 101 10 52 1 107 7 130 15 24 9
78 15 138 15 54 0 130 6 170 14 40 8 151 17 247 21 96 3 193 10 215 14 54 12
1107 12 1170 1z"/>
<path d="M6010 10170 c-12 -8 -9 -10 12 -10 15 0 30 5 33 10 8 13 -25 13 -45
0z"/>
<path d="M5920 10130 c0 -12 8 -12 35 0 18 8 17 9 -7 9 -16 1 -28 -3 -28 -9z"/>
<path d="M5855 10095 c-26 -22 -27 -25 -10 -25 11 0 31 12 44 25 31 33 6 32
-34 0z"/>
<path d="M5783 10041 c-30 -25 -29 -33 5 -29 19 2 28 9 30 26 4 27 -6 28 -35
3z"/>
<path d="M5671 9995 c32 -32 39 -36 58 -26 31 17 26 38 -11 44 -18 3 -44 8
-58 12 -23 7 -22 5 11 -30z"/>
<path d="M5675 9909 c-4 -6 -5 -13 -2 -16 8 -7 47 7 47 18 0 13 -37 11 -45 -2z"/>
<path d="M5643 9883 c-7 -3 -13 -11 -13 -18 0 -7 -20 -34 -45 -59 -25 -26 -45
-54 -45 -62 0 -9 19 -38 43 -65 27 -30 49 -70 60 -104 16 -52 52 -115 70 -123
4 -2 7 -10 7 -17 0 -8 26 -30 58 -49 31 -20 84 -57 117 -81 97 -73 125 -82
110 -36 -3 12 -17 24 -30 27 -13 3 -31 17 -40 30 -8 13 -20 24 -26 24 -6 0
-30 16 -53 35 -24 19 -48 35 -54 35 -7 0 -18 15 -26 34 -8 19 -30 52 -50 74
-20 22 -36 46 -36 54 0 9 -11 32 -25 52 -64 95 -68 122 -25 176 38 49 40 86 3
73z"/>
<path d="M6020 9227 c0 -11 39 -37 55 -37 10 0 4 19 -11 34 -19 20 -44 21 -44
3z"/>
<path d="M5370 9285 c0 -8 5 -15 10 -15 6 0 10 7 10 15 0 8 -4 15 -10 15 -5 0
-10 -7 -10 -15z"/>
<path d="M5690 9015 c0 -8 5 -15 10 -15 6 0 20 -11 32 -25 29 -33 56 -33 56 0
0 19 -7 27 -27 31 -14 3 -34 9 -43 15 -24 12 -28 12 -28 -6z"/>
<path d="M6030 8842 c0 -13 23 -32 38 -32 7 0 12 5 10 12 -5 13 -48 31 -48 20z"/>
<path d="M6090 8801 c0 -5 15 -13 32 -17 18 -3 38 -14 44 -22 6 -9 18 -13 28
-9 24 10 19 27 -8 27 -13 0 -26 7 -30 15 -6 16 -66 21 -66 6z"/>
<path d="M6255 8760 c-4 -7 -3 -16 3 -22 14 -14 45 -2 40 15 -6 16 -34 21 -43
7z"/>
<path d="M10100 7712 c0 -10 -9 -37 -21 -61 -29 -61 -20 -87 12 -36 33 51 47
115 24 115 -8 0 -15 -8 -15 -18z"/>
<path d="M8200 7045 c-8 -2 -60 -8 -115 -15 -320 -37 -651 -194 -913 -432 -91
-83 -244 -258 -260 -298 -3 -8 -16 -30 -28 -48 -42 -61 -93 -181 -130 -305 -9
-32 -20 -60 -24 -62 -4 -3 -11 17 -15 43 -4 26 -10 52 -15 57 -4 6 -10 21 -13
35 -18 82 -93 230 -163 320 -137 178 -353 349 -586 463 -180 88 -335 134 -603
178 -89 14 -364 6 -465 -14 -133 -26 -337 -105 -445 -171 -201 -124 -351 -257
-528 -466 -129 -152 -284 -491 -314 -685 -10 -67 -5 -397 7 -450 6 -27 15 -73
20 -102 9 -55 24 -108 46 -161 8 -18 14 -40 14 -48 0 -9 6 -30 14 -47 7 -18
30 -72 51 -122 20 -49 41 -94 46 -99 11 -12 12 -46 1 -46 -4 0 -19 8 -32 17
-66 47 -135 83 -159 83 -19 0 -55 -27 -136 -101 -108 -99 -169 -140 -231 -153
-18 -4 -45 -20 -60 -36 -32 -33 -49 -37 -58 -15 -7 20 -36 19 -36 0 0 -9 10
-20 22 -24 22 -8 22 -9 4 -17 -10 -4 -27 -2 -37 4 -28 18 -42 15 -36 -8 4 -17
0 -20 -34 -20 -28 0 -39 4 -39 15 0 8 -4 15 -10 15 -5 0 -10 -6 -10 -14 0 -10
-11 -13 -37 -11 -42 3 -103 25 -103 37 0 4 -25 15 -56 25 -37 11 -62 27 -75
45 -11 15 -26 28 -32 28 -7 0 -37 26 -68 58 -188 194 -245 363 -211 627 12 91
28 141 48 149 9 4 14 13 10 21 -3 8 3 23 12 32 10 10 27 35 37 57 11 21 31 46
45 55 14 9 40 31 59 48 38 36 53 40 70 19 10 -12 8 -17 -8 -26 -22 -11 -28
-44 -11 -55 5 -3 15 7 22 22 32 75 102 137 175 153 33 8 315 -12 343 -24 8 -3
44 -10 80 -16 36 -5 79 -12 96 -16 27 -5 38 0 73 32 135 122 205 343 203 646
0 75 -5 145 -11 156 -6 10 -25 25 -43 32 -18 7 -46 18 -63 25 -16 7 -47 20
-68 29 -21 9 -48 16 -61 16 -13 0 -37 7 -52 15 -16 8 -42 15 -57 15 -15 0 -43
6 -62 14 -46 20 -455 17 -530 -3 -27 -7 -77 -19 -110 -27 -144 -35 -278 -80
-368 -125 -32 -16 -63 -29 -69 -29 -6 0 -30 -14 -55 -30 -24 -17 -58 -37 -75
-46 -85 -44 -243 -181 -318 -275 -32 -41 -66 -82 -74 -91 -9 -10 -16 -24 -16
-31 0 -7 -9 -20 -20 -30 -11 -9 -20 -23 -20 -31 0 -8 -3 -16 -7 -18 -11 -4
-43 -67 -43 -83 0 -7 -7 -15 -15 -19 -8 -3 -15 -14 -15 -23 0 -10 -6 -27 -13
-38 -7 -11 -23 -51 -36 -90 -13 -38 -27 -74 -31 -80 -4 -5 -10 -23 -13 -40 -3
-16 -10 -48 -16 -70 -44 -175 -45 -187 -44 -420 0 -142 5 -249 12 -280 7 -27
16 -72 20 -100 4 -27 13 -61 18 -75 6 -14 21 -50 33 -80 49 -126 73 -174 138
-275 6 -11 17 -31 23 -45 5 -13 14 -27 18 -30 4 -3 41 -50 83 -105 45 -59 109
-128 158 -170 45 -38 92 -78 104 -89 11 -10 42 -32 69 -48 26 -16 47 -34 47
-39 0 -5 11 -9 25 -9 13 0 28 -6 32 -13 7 -11 111 -65 155 -80 10 -4 18 -11
18 -17 0 -5 11 -10 24 -10 13 0 37 -6 53 -14 66 -34 170 -64 263 -77 30 -4
116 -17 190 -28 93 -14 182 -21 285 -20 230 0 319 14 503 74 10 4 9 10 -3 29
-15 22 -14 24 7 30 44 11 54 7 29 -13 -15 -12 -20 -21 -13 -25 17 -10 79 4 93
20 6 8 20 14 31 14 10 0 21 7 24 15 4 8 12 15 20 15 37 0 344 314 344 352 0 4
15 29 34 55 18 27 50 83 69 126 22 47 42 77 51 77 9 0 44 -17 78 -38 127 -77
225 -118 413 -175 95 -28 271 -40 512 -34 214 5 275 12 438 48 93 21 294 90
320 111 14 11 29 18 32 15 7 -8 124 58 237 135 22 16 125 108 180 163 73 71
146 162 157 194 6 17 20 36 30 42 10 5 19 16 19 24 0 8 6 15 14 15 8 0 17 14
21 30 4 17 11 30 16 30 5 0 9 6 9 13 0 7 9 29 20 50 21 38 19 57 -3 57 -18 0
-47 -57 -47 -93 0 -24 -3 -28 -12 -19 -21 21 -38 13 -38 -17 0 -16 -6 -31 -15
-35 -8 -3 -15 -12 -15 -20 0 -17 -71 -111 -111 -146 -16 -14 -29 -33 -29 -42
0 -11 -5 -15 -15 -12 -8 4 -15 1 -15 -4 0 -13 -90 -112 -101 -112 -18 0 -7 17
46 74 30 32 55 62 55 66 0 5 3 10 8 12 4 2 15 14 24 28 51 73 114 165 121 177
4 7 12 21 17 31 6 9 13 24 16 32 28 72 39 97 51 106 7 6 13 24 13 40 0 16 7
38 15 48 8 11 15 32 15 47 0 15 4 30 9 33 5 3 12 22 16 42 8 47 19 35 39 -45
10 -41 25 -73 41 -87 14 -13 25 -33 25 -44 0 -22 50 -130 85 -185 66 -102 213
-282 286 -351 89 -82 295 -230 379 -271 113 -55 296 -123 333 -123 9 0 25 -4
35 -9 18 -10 180 -39 220 -39 13 -1 56 -5 95 -10 111 -15 355 -10 395 8 52 24
41 40 -24 36 -30 -2 -58 -7 -61 -10 -10 -10 -33 -7 -33 4 0 12 65 30 115 30
22 0 48 7 58 15 12 8 31 11 53 8 25 -4 35 -2 40 11 4 9 23 19 44 22 22 4 41
13 44 20 3 8 15 14 26 14 11 0 28 8 39 18 93 88 100 90 85 35 -4 -14 -14 -23
-25 -23 -22 0 -23 -8 -5 -33 13 -16 16 -15 45 25 17 23 32 50 33 60 0 10 1 24
2 31 1 6 -4 12 -11 12 -19 0 -24 11 -17 39 5 20 9 24 19 16 21 -18 27 17 10
66 -8 25 -15 52 -15 61 0 15 1 15 13 2 6 -9 24 -23 39 -32 15 -10 37 -36 49
-60 54 -106 165 -240 385 -461 93 -95 109 -107 133 -103 19 4 30 1 39 -13 9
-14 8 -20 -1 -23 -9 -3 -9 -8 2 -20 18 -23 31 -21 31 3 0 26 10 25 81 -7 38
-17 58 -32 54 -40 -3 -10 2 -12 20 -7 16 4 54 -5 106 -25 44 -17 92 -31 105
-31 14 0 37 -6 52 -14 15 -7 49 -16 75 -20 27 -3 54 -9 60 -13 23 -15 370 -41
432 -33 33 5 103 11 155 15 52 4 107 14 122 21 15 8 40 14 57 14 16 0 33 5 36
10 3 6 26 10 50 10 29 0 45 5 49 15 3 8 13 15 21 15 9 0 37 14 62 32 26 17 58
31 73 31 17 0 30 8 36 20 5 12 32 36 59 55 131 89 356 327 435 459 18 32 47
75 62 95 16 20 33 50 39 67 6 18 19 36 30 41 10 6 16 16 13 24 -3 7 10 42 28
77 58 110 109 342 123 559 1 25 6 62 10 83 5 28 3 42 -7 55 -11 12 -17 51 -22
126 -3 60 -11 115 -18 123 -6 8 -12 43 -12 78 -1 44 -5 65 -13 65 -7 0 -22 32
-34 72 -16 57 -19 76 -10 91 7 10 9 23 5 29 -4 7 -10 5 -16 -6 -5 -9 -13 -14
-19 -11 -12 8 -12 55 1 55 6 0 10 5 10 11 0 6 -9 9 -20 6 -16 -4 -20 0 -20 19
0 15 -6 24 -16 24 -12 0 -15 6 -10 25 5 18 1 27 -13 35 -26 13 -55 71 -40 80
6 4 -14 31 -52 66 -34 32 -101 97 -148 143 -86 84 -196 170 -261 206 -19 11
-42 25 -50 31 -31 24 -253 134 -270 134 -11 0 -21 4 -24 9 -3 4 -38 18 -78 31
-40 12 -84 26 -98 32 -14 5 -45 14 -70 18 -102 20 -158 31 -205 42 -64 15
-380 13 -448 -3 -119 -27 -166 -42 -245 -75 -46 -20 -98 -44 -115 -54 -18 -10
-56 -31 -84 -46 -29 -15 -53 -31 -53 -36 0 -4 -6 -8 -12 -8 -11 0 -113 -64
-128 -80 -3 -3 -43 -35 -90 -72 -47 -36 -111 -94 -142 -129 -65 -73 -169 -209
-190 -248 -7 -14 -25 -44 -39 -66 -23 -35 -93 -194 -134 -305 -14 -38 -33
-112 -46 -175 -4 -22 -12 -58 -17 -80 -16 -66 -23 -283 -13 -390 9 -85 28
-178 57 -272 15 -51 -17 -19 -53 52 -36 72 -130 204 -145 205 -4 0 -19 11 -33
24 -37 35 -131 63 -156 48 -10 -7 -27 -12 -37 -12 -9 0 -28 -7 -41 -16 -33
-23 -151 -14 -188 15 -14 12 -34 21 -44 21 -10 0 -20 4 -23 9 -4 5 -25 19 -49
30 -23 12 -65 42 -93 68 -48 45 -124 150 -124 171 0 5 -7 15 -15 22 -8 7 -15
27 -15 45 0 18 -7 46 -15 61 -20 39 -20 191 0 218 8 11 15 32 15 48 0 15 4 28
9 28 9 0 41 88 41 112 0 7 48 59 106 115 87 84 122 111 193 145 71 35 96 42
143 42 31 -1 71 -7 90 -14 39 -16 325 -188 333 -201 13 -20 47 -7 132 51 139
94 291 254 441 462 64 88 73 114 47 124 -8 4 -15 11 -15 16 0 15 -114 151
-168 199 -157 142 -365 235 -702 314 -111 26 -410 51 -470 40z m425 -113 c127
-28 164 -38 300 -84 214 -73 345 -156 481 -304 43 -47 80 -90 82 -94 2 -4 -16
-29 -38 -56 -23 -26 -59 -70 -80 -98 -67 -91 -173 -203 -265 -282 -131 -112
-130 -111 -163 -87 -212 155 -377 233 -555 263 -68 11 -87 11 -159 -5 -102
-22 -149 -42 -240 -101 -180 -116 -312 -298 -359 -495 -23 -98 -24 -133 -3
-229 18 -82 18 -82 67 -190 90 -196 290 -375 462 -412 110 -24 245 -17 315 17
175 86 180 88 220 82 72 -9 179 -128 249 -276 12 -24 21 -49 21 -55 0 -7 7
-21 15 -32 8 -10 15 -31 15 -45 0 -15 7 -43 15 -62 10 -23 15 -69 15 -127 0
-89 0 -90 -35 -129 -55 -61 -109 -83 -305 -125 -323 -70 -589 -60 -902 34 -34
10 -184 83 -233 113 -26 16 -132 95 -170 127 -113 93 -269 286 -362 447 -56
95 -68 120 -107 208 -10 22 -24 53 -32 68 -8 16 -14 36 -14 45 0 9 -7 30 -15
46 -8 15 -15 37 -15 48 0 11 -7 41 -14 67 -35 109 -55 415 -36 521 7 36 16 85
20 110 4 25 13 61 20 80 7 19 19 53 27 75 27 74 105 227 157 303 28 42 103
128 167 192 218 220 499 375 804 444 99 22 135 24 360 20 148 -2 223 -8 290
-22z m-3330 -27 c241 -28 397 -72 634 -182 201 -93 448 -301 563 -475 56 -84
128 -227 128 -253 0 -8 6 -29 14 -47 22 -53 43 -136 61 -238 20 -121 25 -553
7 -587 -7 -13 -16 -42 -21 -65 -17 -83 -93 -269 -144 -353 -164 -270 -350
-475 -547 -601 -120 -77 -270 -122 -550 -166 -132 -20 -533 -17 -635 5 -84 19
-173 46 -190 57 -5 4 -32 15 -60 25 -209 76 -465 276 -620 483 -73 100 -160
281 -195 407 -5 17 -13 44 -18 60 -22 62 -42 143 -42 163 0 12 -7 47 -15 79
-21 79 -20 391 0 448 8 22 15 54 15 71 0 16 7 39 15 50 8 10 15 27 15 36 0 40
99 237 177 355 162 245 380 444 637 583 110 59 319 126 436 139 52 6 109 13
125 15 61 7 83 6 210 -9z m5350 -335 c156 -15 318 -50 403 -86 18 -8 41 -14
50 -14 10 0 27 -7 38 -15 10 -8 26 -15 34 -15 15 0 180 -81 260 -127 154 -89
361 -276 446 -405 66 -99 73 -109 89 -150 3 -7 9 -20 14 -28 8 -14 19 -38 55
-122 7 -18 21 -60 31 -93 9 -33 23 -80 31 -105 8 -25 14 -58 14 -75 1 -16 7
-57 15 -90 10 -40 15 -117 15 -234 0 -166 -6 -217 -41 -356 -6 -22 -14 -56
-19 -75 -34 -141 -154 -355 -301 -538 -66 -82 -230 -247 -284 -287 -22 -16
-42 -32 -45 -35 -10 -13 -96 -67 -140 -89 -25 -12 -52 -26 -60 -30 -33 -19
-92 -41 -106 -41 -9 0 -30 -6 -47 -14 -18 -7 -70 -21 -117 -30 -115 -22 -474
-23 -546 -1 -27 8 -63 15 -81 15 -17 0 -44 5 -60 11 -15 6 -46 14 -68 19 -122
25 -372 137 -500 223 -127 85 -267 216 -352 329 -128 171 -221 346 -263 493
-4 17 -13 44 -18 60 -30 86 -42 187 -42 340 0 151 7 215 41 350 6 22 14 56 19
75 9 38 26 87 47 137 7 17 13 34 13 38 0 16 105 214 147 279 62 95 150 202
205 251 77 69 142 120 180 143 20 13 38 26 40 30 4 10 192 123 238 144 181 82
212 92 360 113 113 16 173 17 305 5z m-7530 -115 c38 -8 83 -15 100 -15 16 -1
41 -7 55 -15 14 -8 35 -14 47 -15 12 0 37 -6 55 -14 18 -8 61 -23 95 -33 l63
-18 0 -73 c0 -40 -7 -137 -15 -215 -21 -191 -56 -294 -138 -400 -29 -37 -30
-37 -81 -31 -28 4 -59 11 -69 16 -10 5 -55 14 -100 19 -45 5 -104 13 -132 19
-136 25 -321 -2 -425 -61 -8 -5 -24 -13 -36 -18 -70 -31 -219 -231 -239 -322
-4 -16 -11 -31 -16 -34 -5 -4 -9 -18 -9 -33 0 -15 -7 -49 -15 -76 -20 -65 -19
-211 1 -294 52 -217 205 -423 400 -542 45 -28 87 -50 94 -50 6 0 24 -6 38 -14
39 -21 164 -40 209 -32 21 3 54 9 73 12 19 3 49 12 65 19 17 8 37 16 45 20 67
27 178 112 293 225 67 66 123 120 124 120 1 0 44 -28 95 -62 102 -67 180 -132
303 -249 44 -42 99 -93 123 -114 23 -20 42 -43 42 -50 0 -18 -135 -221 -194
-290 -28 -33 -74 -79 -104 -103 -45 -37 -78 -58 -177 -119 -43 -26 -109 -55
-220 -95 -95 -35 -113 -41 -162 -48 -28 -5 -57 -12 -64 -16 -15 -9 -143 -22
-299 -31 -113 -6 -270 7 -360 29 -25 6 -63 14 -85 18 -124 24 -370 146 -525
262 -89 67 -230 207 -301 300 -33 42 -59 79 -59 82 0 3 -13 24 -29 48 -79 118
-169 343 -185 463 -3 22 -10 60 -15 85 -16 70 -13 358 3 442 47 237 59 283 92
351 8 16 14 37 14 47 0 9 7 23 15 30 8 7 15 19 15 27 0 15 51 114 96 185 130
207 329 378 579 496 39 18 83 40 98 48 16 8 36 14 46 14 9 0 26 7 37 15 10 8
30 15 44 15 14 0 36 7 50 15 14 8 38 14 53 15 16 0 38 5 49 11 12 7 53 16 92
21 39 5 91 12 116 17 75 14 260 12 335 -4z m5300 -364 c9 -16 -31 -31 -67 -25
-31 5 -32 4 -14 -10 20 -16 14 -36 -11 -36 -8 0 -32 -13 -52 -29 -20 -15 -45
-31 -57 -35 -11 -3 -27 -17 -34 -31 -7 -14 -21 -27 -32 -31 -10 -3 -23 -15
-30 -27 -6 -12 -19 -28 -29 -35 -26 -18 -76 -133 -65 -151 3 -5 -1 -16 -9 -24
-22 -23 -32 -54 -41 -137 -11 -111 -6 -173 22 -235 13 -31 24 -60 24 -66 0
-22 40 -95 64 -118 14 -14 26 -33 26 -43 0 -10 8 -21 18 -25 16 -6 28 -15 70
-54 9 -9 54 -36 100 -60 112 -58 107 -81 -17 -81 -114 1 -249 51 -310 116 -14
14 -30 26 -38 26 -7 0 -13 4 -13 9 0 4 -12 22 -27 39 -76 83 -133 182 -167
287 -21 65 -22 260 -2 307 8 18 17 40 20 48 3 8 10 23 16 33 5 9 15 25 20 35
6 9 14 26 19 37 14 31 122 151 166 184 22 16 51 39 65 49 26 20 149 76 185 85
37 9 194 7 200 -2z m23 -2228 c-10 -2 -26 -2 -35 0 -10 3 -2 5 17 5 19 0 27
-2 18 -5z m-4676 -355 c-13 -13 -32 -2 -32 18 0 12 4 13 21 3 14 -7 18 -14 11
-21z m-52 -18 c0 -6 -7 -13 -15 -16 -20 -8 -48 3 -40 16 8 13 55 13 55 0z
m-218 -82 c-9 -9 -15 -9 -24 0 -9 9 -7 12 12 12 19 0 21 -3 12 -12z m-52 -18
c0 -5 -7 -10 -15 -10 -8 0 -15 5 -15 10 0 6 7 10 15 10 8 0 15 -4 15 -10z"/>
<path d="M5135 6170 c-114 -12 -270 -72 -370 -140 -78 -54 -215 -216 -215
-255 0 -7 -7 -18 -15 -25 -8 -7 -15 -22 -15 -34 -1 -11 -7 -32 -15 -46 -8 -14
-14 -38 -15 -53 0 -16 -7 -53 -16 -82 -19 -67 -16 -311 5 -365 72 -185 234
-347 461 -458 l95 -47 154 2 c163 2 213 13 314 66 154 83 325 281 378 441 33
101 33 268 -1 396 -71 265 -271 510 -472 579 -65 22 -180 31 -273 21z m155
-80 c115 -15 193 -54 285 -145 115 -113 196 -258 240 -427 19 -75 22 -231 5
-285 -21 -67 -80 -177 -125 -235 l-44 -56 -75 -7 c-78 -8 -96 -6 -156 15 -81
29 -139 57 -204 100 -110 71 -129 86 -155 114 -28 30 -41 33 -41 9 0 -22 56
-83 76 -83 8 0 17 -7 21 -15 3 -9 22 -25 42 -36 20 -11 50 -28 66 -38 98 -62
179 -91 257 -91 54 0 70 -15 34 -31 -13 -6 -22 -17 -20 -24 3 -7 -20 -26 -58
-45 -47 -25 -85 -36 -152 -44 -100 -13 -261 -2 -286 19 -8 7 -42 25 -74 39
-81 37 -141 80 -209 149 -81 83 -119 142 -166 260 -15 39 -14 192 2 225 7 15
12 50 11 77 -1 34 5 60 17 81 11 17 19 41 19 52 0 11 4 23 9 26 5 3 12 17 15
31 6 25 44 86 71 115 86 90 115 114 177 142 l38 17 0 -25 c0 -24 -2 -30 -33
-92 -21 -41 -21 -52 -3 -52 8 0 19 14 25 31 6 16 23 49 38 72 15 23 35 55 43
71 24 46 77 74 155 85 39 4 70 9 70 10 0 0 39 -4 85 -9z"/>
<path d="M4846 5774 c-9 -24 12 -44 24 -24 5 8 8 19 7 24 -6 17 -24 17 -31 0z"/>
<path d="M4832 5703 c-11 -29 -6 -243 7 -256 6 -6 11 -19 11 -29 0 -10 7 -21
15 -24 8 -4 15 -17 15 -30 0 -13 8 -36 18 -52 25 -41 80 -102 92 -102 15 0 12
18 -7 38 -54 55 -96 129 -108 192 -4 19 -14 43 -22 52 -10 12 -13 28 -9 55 13
86 16 173 6 173 -6 0 -14 -8 -18 -17z"/>
<path d="M10475 5763 c-149 -44 -286 -132 -397 -253 -83 -89 -118 -157 -143
-278 -19 -94 -19 -174 1 -281 34 -184 102 -334 198 -438 58 -62 169 -143 198
-143 5 0 24 -6 41 -14 18 -7 66 -21 107 -30 348 -76 695 151 801 524 7 25 14
115 16 200 5 177 -4 226 -65 349 -70 141 -177 235 -365 320 -37 17 -75 31 -85
31 -9 0 -39 7 -66 15 -61 19 -175 18 -241 -2z m203 -94 c30 -6 61 -19 70 -30
9 -10 24 -19 32 -19 9 0 35 -9 58 -20 22 -11 53 -20 68 -20 31 0 115 -46 159
-87 58 -54 135 -187 135 -235 0 -10 7 -33 16 -49 12 -24 14 -54 11 -137 -5
-146 -20 -210 -80 -342 -50 -108 -198 -242 -330 -299 -91 -39 -273 -34 -342 9
-18 11 -38 20 -45 20 -7 0 -27 12 -45 28 -90 75 -107 83 -120 62 -10 -17 -25
-11 -25 10 0 11 5 20 10 20 6 0 10 7 10 15 0 8 -7 15 -15 15 -8 0 -15 -7 -15
-15 0 -31 -31 -13 -70 40 -22 30 -40 59 -40 64 0 6 -13 34 -28 63 -50 92 -64
153 -69 299 -5 114 -3 145 12 195 19 62 69 148 107 186 56 56 193 168 207 169
9 1 23 2 31 3 8 0 14 6 13 12 -2 13 67 41 112 46 79 8 124 7 173 -3z"/>
<path d="M10640 5603 c-53 -24 -23 -26 40 -3 45 16 49 19 25 19 -16 0 -46 -8
-65 -16z"/>
<path d="M10402 5467 c-26 -27 -28 -37 -8 -37 8 0 22 10 30 22 30 42 13 53
-22 15z"/>
<path d="M10242 5247 c-22 -24 -31 -87 -12 -87 6 0 10 7 10 16 0 9 7 31 16 50
20 43 14 51 -14 21z"/>
<path d="M10197 5107 c-11 -29 -9 -53 4 -40 6 6 9 21 7 34 -3 21 -4 22 -11 6z"/>
<path d="M10180 4745 c0 -18 31 -75 40 -75 7 0 10 3 8 8 -3 4 -10 22 -17 40
-11 27 -31 45 -31 27z"/>
<path d="M2546 4698 c8 -27 12 -33 19 -27 7 8 -7 49 -17 49 -5 0 -6 -10 -2
-22z"/>
<path d="M2980 4360 c0 -5 7 -10 15 -10 8 0 15 5 15 10 0 6 -7 10 -15 10 -8 0
-15 -4 -15 -10z"/>
<path d="M8963 3970 c-4 -14 -14 -20 -32 -20 -15 0 -36 -7 -47 -15 -10 -8 -33
-15 -50 -15 -17 0 -37 -7 -44 -15 -7 -8 -19 -15 -26 -15 -8 0 -14 -7 -14 -16
0 -12 5 -14 18 -9 9 5 52 15 95 23 62 12 82 20 94 39 12 19 18 21 30 12 10 -9
17 -9 25 -1 9 9 7 17 -7 32 -23 25 -35 25 -42 0z"/>
<path d="M9830 3566 c0 -17 14 -29 23 -20 8 8 -3 34 -14 34 -5 0 -9 -6 -9 -14z"/>
<path d="M9860 3520 c0 -13 48 -36 56 -27 4 3 4 13 1 22 -7 17 -57 21 -57 5z"/>
<path d="M10162 3368 c5 -15 28 -18 29 -3 0 6 -7 12 -17 13 -10 3 -15 -1 -12
-10z"/>
<path d="M10510 3280 c-12 -8 -11 -10 8 -10 12 0 22 5 22 10 0 13 -11 13 -30
0z"/>
<path d="M6536 3503 c-5 -5 -54 -7 -321 -16 -44 -2 -136 -10 -205 -20 -69 -9
-179 -19 -245 -22 -236 -11 -573 -49 -680 -76 -22 -5 -99 -16 -171 -23 -72 -8
-140 -19 -152 -25 -11 -6 -43 -11 -71 -11 -27 0 -53 -5 -56 -11 -7 -11 73 -7
270 13 55 5 143 12 195 14 52 3 104 9 115 14 33 15 463 44 1030 70 274 12
1503 11 1640 -2 180 -16 337 -20 348 -9 8 8 -2 11 -34 11 -24 0 -60 5 -79 10
-36 11 -327 39 -460 45 -41 1 -129 6 -195 10 -66 3 -169 9 -230 11 -60 3 -138
7 -172 10 -34 3 -93 1 -131 -5 -46 -7 -97 -8 -153 -1 -121 13 -236 19 -243 13z"/>
<path d="M4160 3220 c-25 -4 -58 -12 -73 -18 -16 -7 -40 -12 -55 -12 -15 0
-47 -11 -71 -25 -23 -14 -51 -25 -61 -25 -11 0 -22 -4 -25 -10 -9 -15 7 -12
91 15 42 14 86 25 98 25 13 0 42 6 67 14 24 8 65 17 92 21 26 3 47 10 47 16 0
10 -42 10 -110 -1z"/>
<path d="M6907 2949 c-30 -8 -77 -47 -77 -64 0 -7 61 -12 168 -13 92 -2 168
-7 170 -11 1 -5 9 -16 16 -26 12 -17 14 -17 42 3 32 24 -7 24 439 -9 211 -15
203 -13 215 -60 13 -49 10 -175 -5 -196 -9 -12 -24 -13 -80 -6 l-70 8 0 53 c0
58 -11 72 -58 72 -33 0 -34 -2 -41 -110 -4 -47 -10 -128 -15 -180 -5 -52 -6
-100 -4 -107 3 -6 17 -13 31 -15 25 -3 27 -7 30 -55 4 -68 -12 -78 -106 -65
-68 9 -229 5 -236 -7 -2 -3 0 -16 5 -28 6 -16 17 -23 36 -23 15 0 36 -6 45
-13 10 -8 37 -12 70 -10 29 2 86 5 127 6 46 2 76 8 79 15 7 21 43 13 71 -17
14 -15 40 -31 56 -34 17 -3 55 -13 85 -21 34 -10 67 -14 85 -9 47 11 128 2
155 -17 14 -9 35 -21 48 -24 12 -4 22 -14 22 -21 0 -14 25 -23 65 -23 74 0
197 -17 206 -28 6 -8 21 -14 33 -14 12 0 39 -9 60 -20 21 -10 59 -22 85 -25
154 -19 180 -26 250 -66 55 -32 88 -43 142 -50 39 -5 82 -6 94 -3 26 6 85 -20
85 -39 0 -21 68 -84 114 -106 80 -39 145 -23 224 55 55 55 91 121 92 166 0 16
8 31 19 37 10 6 21 24 24 41 4 16 16 38 27 47 11 10 20 23 20 29 0 15 93 156
115 174 9 8 15 29 15 56 0 35 -7 51 -37 87 -21 25 -50 51 -65 57 -15 7 -29 18
-31 24 -5 13 -61 34 -155 57 -48 12 -57 11 -103 -9 l-51 -21 -31 37 c-61 71
-107 107 -159 126 -63 22 -149 38 -202 37 -31 -1 -46 6 -75 34 -20 20 -46 35
-59 35 -13 0 -31 4 -40 9 -10 5 -38 12 -62 16 -25 3 -65 13 -90 21 -51 18 -92
11 -88 -13 2 -10 -6 -19 -19 -22 -12 -3 -40 -21 -62 -40 -33 -28 -41 -41 -41
-69 0 -40 -19 -39 -33 3 -8 22 -6 30 6 37 15 8 14 11 -4 29 -16 16 -20 29 -15
51 5 26 2 31 -27 43 -17 7 -37 22 -44 33 -6 10 -33 33 -59 50 -41 28 -56 32
-111 32 -47 0 -65 -4 -69 -15 -3 -8 -25 -25 -47 -39 -23 -13 -51 -33 -61 -45
-20 -22 -56 -29 -56 -10 0 5 -15 24 -32 40 -32 30 -33 30 -13 45 13 10 15 14
5 12 -9 -2 -49 17 -89 42 -66 39 -81 44 -140 46 -36 1 -115 4 -176 8 -60 3
-148 8 -195 11 -47 3 -97 8 -112 11 -21 5 -28 3 -28 -9 0 -25 -20 -30 -41 -11
-16 15 -40 19 -120 21 -55 1 -103 4 -107 6 -4 2 -19 1 -35 -4z m1378 -209 c3
-5 19 -10 34 -10 33 0 51 -17 49 -45 -2 -24 18 -188 37 -310 8 -49 17 -119 20
-155 6 -54 12 -70 40 -101 18 -21 36 -35 39 -32 3 4 23 9 43 12 42 7 42 6 69
141 9 47 27 121 40 164 26 87 23 102 -24 108 -24 3 -27 8 -30 46 -6 76 12 83
128 47 75 -23 168 -46 210 -52 44 -6 61 -27 53 -67 -7 -40 -35 -65 -66 -59
-32 6 -57 -21 -57 -62 0 -19 -4 -36 -9 -39 -4 -3 -11 -24 -15 -46 -3 -23 -11
-49 -16 -58 -5 -9 -21 -53 -35 -96 -27 -80 -25 -95 12 -96 25 0 34 -36 18 -73
-17 -42 -31 -53 -48 -38 -7 5 -31 14 -52 20 -108 27 -131 34 -147 42 -9 5 -66
18 -125 29 -59 12 -135 28 -169 36 -33 8 -74 14 -92 14 -37 0 -46 11 -44 58 2
42 15 60 50 64 21 2 27 8 27 28 0 23 -5 26 -57 32 -32 4 -67 12 -77 18 -11 5
-31 10 -45 10 -21 0 -26 -5 -26 -25 0 -14 8 -29 20 -35 26 -14 38 -77 18 -97
-13 -13 -30 -12 -139 2 -68 10 -131 20 -139 25 -8 4 -16 24 -18 44 -4 45 16
71 58 80 21 4 37 18 56 48 14 24 48 76 75 116 27 40 49 74 49 77 0 2 20 33 45
68 25 36 45 68 45 71 0 4 15 29 32 57 l33 49 62 0 c34 0 65 -4 68 -10z m957
-280 c34 0 65 -29 73 -67 3 -16 12 -50 20 -78 51 -176 68 -245 74 -290 5 -42
10 -51 28 -53 25 -4 27 0 58 98 10 30 21 60 25 65 13 17 20 69 12 82 -4 6 -20
17 -35 22 -26 10 -28 14 -22 44 14 62 23 77 49 77 14 0 28 -5 31 -10 7 -11
149 -80 166 -80 26 0 89 -42 89 -59 0 -28 -39 -71 -64 -71 -25 0 -66 -26 -66
-43 0 -6 -21 -54 -46 -107 -26 -52 -51 -104 -55 -115 -4 -11 -17 -41 -28 -67
-12 -26 -21 -54 -21 -62 0 -8 -4 -18 -10 -21 -5 -3 -10 -15 -10 -26 0 -44
-120 -51 -165 -9 -14 13 -32 52 -44 94 -12 39 -27 91 -35 116 -14 47 -26 91
-47 172 -13 53 -35 80 -49 59 -4 -7 -13 -32 -20 -55 -6 -22 -18 -56 -26 -74
-23 -53 -18 -79 16 -91 20 -6 30 -17 30 -30 0 -23 -30 -91 -40 -91 -4 0 -34
14 -68 30 -34 17 -68 30 -75 30 -8 0 -35 7 -61 16 -47 16 -48 17 -43 51 7 44
23 63 52 63 30 0 39 13 65 90 12 36 28 79 35 95 7 17 25 68 40 114 26 83 27
83 7 105 -31 34 -37 81 -13 105 l20 20 62 -25 c35 -13 75 -24 91 -24z m-1394
9 c3 -19 -75 -138 -96 -146 -35 -14 -65 91 -37 133 21 33 127 44 133 13z m690
-37 c-5 -28 -33 -20 -36 11 -3 26 -2 28 18 17 12 -6 20 -19 18 -28z"/>
<path d="M8146 2484 c-4 -15 -18 -41 -32 -59 -38 -51 -30 -77 30 -87 36 -7 70
23 61 53 -4 12 -10 42 -14 67 -7 55 -34 70 -45 26z"/>
<path d="M6456 2925 c-39 -27 -85 -32 -103 -14 -7 7 -53 12 -121 12 -92 1
-115 -3 -143 -20 -46 -26 -88 -36 -103 -24 -28 23 -268 11 -296 -14 -9 -8 -22
-15 -28 -15 -6 0 -17 -6 -24 -12 -7 -7 -32 -28 -56 -46 -37 -29 -44 -31 -64
-20 -13 7 -32 13 -43 15 -11 1 -58 9 -104 19 -65 13 -92 14 -115 6 -17 -6 -53
-14 -81 -18 -27 -4 -66 -16 -85 -26 -94 -51 -109 -58 -124 -58 -8 0 -39 -27
-68 -60 -74 -85 -91 -95 -123 -74 -14 9 -25 23 -25 30 0 9 -11 14 -30 14 -16
0 -30 3 -30 8 0 10 -102 2 -116 -9 -6 -5 -20 -7 -30 -3 -14 4 -16 3 -5 -4 21
-15 3 -32 -28 -26 -20 4 -35 -1 -57 -19 -16 -13 -39 -29 -51 -36 -14 -7 -23
-21 -23 -35 0 -13 -6 -29 -14 -35 -8 -7 -18 -27 -22 -44 -12 -59 -34 -65 -99
-25 -16 10 -40 18 -51 18 -12 0 -27 6 -33 14 -15 18 -118 19 -125 1 -2 -7 -24
-15 -48 -19 -80 -13 -147 -64 -188 -144 -27 -51 -21 -103 16 -137 13 -12 24
-30 24 -39 0 -9 8 -16 20 -16 13 0 20 -7 20 -19 0 -10 9 -30 20 -44 11 -14 20
-29 20 -35 0 -5 9 -17 19 -26 11 -10 23 -31 26 -47 4 -16 11 -31 16 -34 5 -4
9 -38 9 -77 0 -87 23 -141 80 -186 32 -27 48 -32 90 -32 27 0 60 5 73 12 47
24 57 28 73 28 22 0 101 48 108 65 3 8 21 21 39 29 19 8 38 19 41 25 4 6 14
11 23 11 8 0 26 9 41 20 19 16 39 20 81 19 139 -4 208 22 324 124 l55 48 48
-12 c27 -6 57 -16 68 -21 19 -10 153 -1 171 11 6 4 39 16 75 26 36 11 91 35
123 55 32 19 67 40 78 46 12 7 26 22 33 34 16 33 82 84 98 76 33 -17 59 -34
78 -51 13 -12 27 -15 44 -11 14 3 28 1 31 -4 4 -6 22 -17 42 -25 40 -17 188
-21 198 -5 3 6 23 10 43 10 27 0 41 6 50 21 7 11 21 19 32 17 10 -2 27 5 37
15 10 10 35 29 56 42 29 19 42 23 57 15 10 -5 29 -10 42 -10 l22 0 -20 21
c-19 18 -20 25 -10 54 7 18 27 47 45 64 29 27 32 35 25 63 -4 18 -7 106 -7
196 l0 162 -26 7 c-14 3 -29 11 -33 17 -10 15 -10 68 1 85 11 16 82 30 167 30
l61 1 49 -71 c27 -39 61 -85 75 -103 14 -17 52 -70 83 -117 95 -146 106 -142
97 36 l-6 120 -40 0 c-32 0 -42 5 -52 25 -7 14 -13 33 -13 43 0 27 -60 81 -74
67 -18 -18 -46 -11 -56 14 -7 20 -18 26 -57 31 -26 3 -62 10 -79 15 -48 16
-79 12 -118 -15z m-98 -88 c19 -13 4 -74 -25 -103 -23 -23 -23 -25 -17 -157 6
-106 3 -154 -10 -231 -17 -92 -20 -98 -59 -131 -54 -46 -147 -75 -242 -75
-101 0 -128 7 -173 46 -69 58 -96 139 -124 364 l-13 105 -32 3 c-17 2 -36 9
-42 15 -11 14 -18 93 -9 102 3 3 41 8 84 9 44 2 117 11 163 21 107 22 131 14
131 -44 0 -45 -20 -71 -55 -71 -13 0 -26 -4 -29 -9 -3 -4 1 -43 9 -86 8 -42
15 -93 15 -113 0 -46 36 -160 57 -184 29 -32 116 -16 156 30 16 17 18 31 13
79 -3 32 -8 113 -12 181 l-6 122 -37 0 c-47 0 -61 14 -61 63 0 72 1 72 162 72
78 0 149 -4 156 -8z m-923 -137 c59 -29 119 -93 155 -165 27 -54 33 -78 38
-154 9 -158 -32 -223 -188 -304 -153 -79 -232 -93 -333 -60 -59 19 -94 39
-120 68 -80 91 -119 273 -84 402 23 88 123 169 267 216 71 23 217 21 265 -3z
m613 -144 c3 -12 -1 -17 -10 -14 -7 3 -15 13 -16 22 -3 12 1 17 10 14 7 -3 15
-13 16 -22z m-1315 -23 c31 -60 30 -71 -2 -88 -17 -8 -31 -21 -31 -28 0 -6 20
-75 44 -152 25 -77 51 -160 58 -185 13 -44 14 -45 50 -42 32 2 37 0 47 -29 24
-69 9 -99 -49 -99 -38 0 -110 -21 -178 -52 -34 -16 -46 -17 -57 -8 -21 18 -18
63 5 93 24 30 25 55 6 99 -8 18 -22 60 -31 93 -35 123 -51 93 -66 -125 -13
-196 -15 -200 -84 -200 -40 0 -45 4 -150 120 -64 70 -117 120 -128 120 -22 0
-20 -10 25 -120 43 -108 40 -105 89 -108 49 -3 69 -21 69 -63 0 -35 -32 -59
-79 -59 -31 0 -102 -33 -109 -52 -7 -17 -61 -8 -72 11 -13 25 -13 78 0 86 39
24 29 65 -67 278 l-58 128 -37 -6 c-33 -6 -38 -4 -52 24 -19 36 -21 75 -3 88
6 5 44 20 82 32 39 12 89 33 112 47 47 27 78 31 90 10 4 -8 42 -50 83 -94 41
-43 97 -104 123 -136 27 -31 53 -54 58 -51 5 4 9 89 9 195 0 218 -3 210 106
244 33 10 84 26 114 36 71 24 67 24 83 -7z"/>
<path d="M5163 2580 c-41 -24 -63 -68 -70 -135 -12 -112 67 -264 158 -306 33
-16 38 -16 81 3 68 29 92 78 83 171 -10 112 -39 180 -104 250 -29 31 -42 37
-76 37 -22 0 -54 -9 -72 -20z m82 -160 c7 -23 21 -26 28 -7 4 9 7 9 17 0 11
-10 11 -13 -1 -18 -12 -4 -14 -20 -11 -73 l4 -67 -30 29 c-25 23 -29 34 -25
61 3 19 0 35 -6 39 -6 4 -11 18 -11 32 0 29 26 33 35 4z"/>
<path d="M7162 2776 c-6 -14 -21 -26 -34 -28 l-23 -3 3 -220 c2 -121 5 -237 8
-258 7 -46 -15 -77 -55 -77 -14 -1 -37 -10 -51 -21 -24 -20 -24 -21 -5 -35 37
-27 68 -17 100 32 17 25 42 52 58 60 20 11 27 22 27 42 0 15 3 56 6 92 3 36 7
88 9 115 l3 50 47 3 48 3 -7 -97 c-5 -74 -11 -102 -26 -122 -34 -43 -18 -139
26 -156 14 -5 16 -2 9 26 -9 42 -7 96 6 119 7 14 16 17 40 12 43 -8 49 5 49
112 0 50 7 119 15 155 22 99 20 139 -7 149 -36 14 -62 -9 -68 -60 l-5 -44 -70
0 -70 0 0 75 c-1 41 -2 81 -3 88 -3 20 -18 14 -30 -12z"/>
<path d="M6623 2535 c-3 -9 -3 -52 -1 -96 5 -85 13 -99 56 -99 31 0 45 -41 39
-112 -5 -62 2 -71 39 -43 10 8 36 15 57 15 30 0 40 -4 44 -19 3 -11 18 -24 34
-30 16 -5 29 -15 29 -20 0 -17 25 -13 44 8 16 18 16 19 -8 25 -16 4 -40 30
-70 73 -24 38 -61 86 -82 108 -20 22 -52 62 -71 89 -37 55 -89 116 -98 116 -3
0 -8 -7 -12 -15z"/>
<path d="M6501 2186 c-85 -22 -57 -52 55 -59 50 -4 79 0 106 12 21 9 38 18 38
21 0 3 -19 13 -43 23 -48 19 -92 20 -156 3z"/>
<path d="M3560 9103 c0 -5 5 -15 10 -23 8 -12 10 -11 10 8 0 12 -4 22 -10 22
-5 0 -10 -3 -10 -7z"/>
<path d="M3506 9074 c-4 -9 -4 -19 -2 -21 8 -8 26 8 26 23 0 19 -16 18 -24 -2z"/>
<path d="M3305 9040 c-16 -5 -38 -7 -48 -4 -10 3 -38 -4 -62 -16 -25 -12 -51
-20 -57 -17 -7 2 -22 0 -33 -6 -21 -11 -58 -20 -160 -38 -78 -13 -97 -30 -83
-72 6 -18 24 -48 40 -68 15 -20 28 -44 28 -53 0 -9 5 -16 10 -16 6 0 15 -10
20 -22 16 -37 32 -58 83 -107 27 -25 55 -59 63 -74 l15 -29 147 5 c81 3 196
10 256 16 60 5 170 11 245 12 l136 3 28 -27 c15 -15 27 -39 27 -52 0 -31 18
-42 34 -19 9 12 15 14 20 5 11 -18 26 -3 26 26 0 31 -64 98 -85 89 -10 -3 -20
6 -30 24 -11 21 -23 30 -40 30 -15 0 -26 7 -30 21 -5 16 -9 18 -21 8 -10 -8
-47 -12 -106 -11 -50 1 -111 -3 -137 -9 -58 -13 -262 -20 -358 -12 -65 5 -77
9 -106 38 -26 25 -40 32 -60 28 -20 -4 -27 -1 -27 10 0 8 5 17 12 19 14 5 4
38 -12 38 -5 0 -10 -7 -10 -15 0 -8 -7 -15 -15 -15 -8 0 -15 8 -15 19 0 10 -7
24 -15 31 -8 7 -15 19 -15 26 0 8 -4 14 -10 14 -5 0 -10 5 -10 10 0 6 5 10 10
10 14 0 70 42 70 52 0 4 -9 8 -20 8 -11 0 -20 5 -20 10 0 6 3 10 8 10 10 0 75
-24 88 -33 11 -6 56 10 112 41 19 11 21 16 11 28 -9 12 -6 14 20 14 22 0 31
-5 31 -16 0 -13 8 -15 53 -9 28 4 62 11 75 16 13 5 38 9 56 9 46 0 60 19 36
50 -15 20 -28 24 -82 27 -34 1 -76 -2 -93 -7z"/>
</g>
</svg>
